<svg version="1.1" id="Layer_1" xmlns="http://www.w3.org/2000/svg" xmlns:xlink="http://www.w3.org/1999/xlink" x="0px" y="0px"
	 width="100%" viewBox="0 0 527 197" enable-background="new 0 0 527 197" xml:space="preserve">
<path fill="#000000" opacity="1.000000" stroke="none" 
	d="
M370.000000,198.000000 
	C246.666672,198.000000 123.833336,198.000000 1.000000,198.000000 
	C1.000000,132.333328 1.000000,66.666664 1.000000,1.000000 
	C176.666672,1.000000 352.333344,1.000000 528.000000,1.000000 
	C528.000000,66.666664 528.000000,132.333328 528.000000,198.000000 
	C475.500000,198.000000 423.000000,198.000000 370.000000,198.000000 
M60.476028,60.167767 
	C60.351059,60.477306 60.226089,60.786842 59.511436,61.651604 
	C58.340904,61.156635 57.170372,60.661667 55.319950,60.064552 
	C54.935646,60.709473 54.551346,61.354389 54.035824,62.793114 
	C54.079632,63.862003 54.123440,64.930893 54.035763,66.929031 
	C54.024239,82.871330 53.985531,98.813744 54.047077,114.755760 
	C54.052670,116.203957 54.702515,117.649666 55.053181,119.096535 
	C55.740215,118.970886 56.427250,118.845238 57.114285,118.719589 
	C57.114285,101.160278 57.114285,83.600960 57.696789,66.312805 
	C58.187321,68.208481 58.677853,70.104149 59.044098,72.662743 
	C59.085495,73.108551 59.126896,73.554352 59.037792,74.744530 
	C59.080936,75.496284 59.124081,76.248032 59.035709,77.929024 
	C59.024544,90.421211 59.027546,102.913452 58.988529,115.405548 
	C58.981873,117.535515 58.849564,119.616966 62.816872,118.488510 
	C62.910229,104.330826 63.003590,90.173134 63.689716,76.304382 
	C66.663025,79.048393 62.842602,82.165283 64.035370,85.929031 
	C64.035370,96.834579 64.035370,107.740128 64.035370,118.645668 
	C64.589035,118.890930 65.142700,119.136192 65.696365,119.381447 
	C66.463264,118.200928 67.880745,117.028206 67.894997,115.838676 
	C68.018120,105.560768 67.888565,95.279839 68.192825,84.520988 
	C68.756020,85.667892 69.319206,86.814789 69.207726,88.495369 
	C69.140450,97.653938 68.987823,106.813698 69.114990,115.969566 
	C69.130714,117.100937 70.636726,118.211617 71.452148,119.331879 
	C71.982246,119.057343 72.512337,118.782806 73.042435,118.508263 
	C73.042435,109.710098 73.042435,100.911926 73.690826,92.344177 
	C78.559250,100.449623 83.365318,108.593658 88.340004,116.633354 
	C89.580383,118.637939 91.383263,120.232307 94.314934,117.705681 
	C94.447044,117.582985 94.579155,117.460289 95.231682,117.797729 
	C96.626396,118.242340 98.021111,118.686943 99.747780,119.237373 
	C98.978134,116.980682 98.454063,115.444069 98.565994,114.137192 
	C99.696541,115.462852 100.827095,116.788506 102.312332,118.696541 
	C103.486160,118.479530 104.659988,118.262520 106.462914,117.385330 
	C108.042122,118.025200 109.621338,118.665077 111.619629,119.474754 
	C111.619629,99.203888 111.619629,79.715591 111.619629,60.227303 
	C111.060371,60.118916 110.501114,60.010525 109.941864,59.902134 
	C109.627968,61.416039 109.048676,62.928673 109.041428,64.444046 
	C108.972183,78.907806 109.030922,93.372177 108.957657,107.835892 
	C108.949120,109.522003 108.364532,111.205193 107.992485,112.285820 
	C107.678993,111.822037 107.365494,111.358261 106.715500,110.210815 
	C106.715500,93.590759 106.715500,76.970703 106.715500,60.379494 
	C102.515266,59.145939 103.007408,61.916462 103.005508,64.185677 
	C102.995003,76.737923 103.000473,89.290192 103.000473,101.842445 
	C102.516441,101.845085 102.032417,101.847725 101.548386,101.850357 
	C101.548386,88.077461 101.548386,74.304558 101.548386,60.364277 
	C98.589836,59.357273 97.949608,60.746429 97.968147,63.468872 
	C98.039474,73.941910 97.970573,84.415909 97.537041,94.956612 
	C97.537041,94.956612 97.114769,94.957207 97.006813,94.320946 
	C96.399216,93.238617 95.791618,92.156288 95.845612,91.022041 
	C96.174225,90.347565 96.502846,89.673088 96.963356,88.069649 
	C96.973869,79.760887 96.939659,71.451698 97.018402,63.143581 
	C97.047203,60.103920 95.877510,59.405525 92.800682,60.740082 
	C92.800682,69.130905 92.800682,77.463432 92.800682,86.238640 
	C90.618355,83.450401 88.839516,81.177673 87.034363,78.967468 
	C87.034363,78.967468 87.096832,78.940987 86.994789,78.223480 
	C82.996780,72.204369 78.998764,66.185257 74.308205,60.038410 
	C73.574974,60.388359 72.841751,60.738304 71.494682,61.641190 
	C69.718758,61.407852 67.942825,61.174515 65.637672,61.637180 
	C64.091820,61.147232 62.545971,60.657288 60.476028,60.167767 
M404.896881,101.551674 
	C404.569061,101.771210 404.241272,101.990738 403.345367,101.496269 
	C403.578369,100.027061 403.811401,98.557846 404.728729,96.553215 
	C404.820648,87.590340 404.966248,78.627159 404.916107,69.665062 
	C404.911438,68.828918 403.668121,67.999718 402.143707,67.116516 
	C401.762634,68.575890 401.074127,70.030655 401.052185,71.495415 
	C400.940033,78.976967 400.871277,86.464134 401.047089,93.943222 
	C401.155609,98.558769 399.275421,101.896461 394.900757,102.802940 
	C390.478882,103.719223 387.399902,101.222984 385.964508,96.071068 
	C385.964508,86.511864 385.964508,76.952667 385.964508,67.393463 
	C385.425934,67.140228 384.887329,66.886993 384.348755,66.633751 
	C383.567688,67.788940 382.157898,68.919510 382.111572,70.103455 
	C381.878723,76.051727 381.900879,82.016304 382.039917,87.970337 
	C382.118500,91.334755 382.595001,94.689865 382.979950,98.752853 
	C383.213257,99.943077 383.446594,101.133301 383.679901,102.323524 
	C383.288513,102.418312 382.897095,102.513092 382.505707,102.607872 
	C382.003815,100.423454 381.112030,98.246719 381.068787,96.053253 
	C380.898865,87.433380 380.947937,78.807831 381.020477,70.185272 
	C381.045563,67.204414 379.927521,66.437996 376.045166,67.851585 
	C377.050415,80.259575 378.055695,92.667557 378.616364,104.936157 
	C378.325134,104.820824 378.057068,104.665489 377.733185,104.246201 
	C377.733185,104.246201 377.507507,104.172295 377.112122,103.510292 
	C376.549896,91.484016 375.987701,79.457741 375.422821,67.374397 
	C372.169037,66.144531 371.969849,68.135582 371.984161,70.612350 
	C372.033173,79.095901 371.816437,87.586105 372.099762,96.060448 
	C372.200043,99.059845 373.444672,102.020973 374.208435,105.617203 
	C374.445953,106.139229 374.683472,106.661263 374.920990,107.183296 
	C366.889465,94.763481 371.733795,80.442612 368.709259,67.005493 
	C367.669312,68.329559 367.061615,69.763176 367.046509,71.202995 
	C366.955872,79.852180 366.460083,88.550293 367.213165,97.134346 
	C367.635132,101.944267 369.280457,107.197159 371.986908,111.145187 
	C378.190796,120.195107 387.685974,123.633652 398.270966,121.652054 
	C409.232147,119.600021 417.678162,113.102409 418.890564,101.506554 
	C420.066132,90.263107 419.145569,78.800491 419.145569,67.267082 
	C416.180511,66.149338 415.971497,68.130814 415.984589,70.611473 
	C416.031982,79.594055 416.256470,88.588226 415.864166,97.553963 
	C415.722443,100.792770 414.030762,103.963760 412.367737,106.555107 
	C417.617828,93.744301 413.745453,80.446724 415.123291,67.616409 
	C411.125519,66.152008 410.972839,68.188881 410.984863,70.636673 
	C411.028870,79.601913 411.458252,88.603485 410.759430,97.514290 
	C410.500702,100.813332 407.526215,103.899391 406.087006,106.469643 
	C406.425873,105.663574 406.764740,104.857506 407.731750,103.645615 
	C412.255768,92.237305 409.120087,80.345062 409.795135,68.694687 
	C409.827087,68.142998 407.771698,67.470367 405.999359,66.462051 
	C405.999359,74.259789 406.102264,80.740738 405.964539,87.216576 
	C405.866669,91.820305 405.444489,96.417152 404.896881,101.551674 
M125.570404,67.251839 
	C124.716286,68.008446 123.124001,68.758240 123.116936,69.522682 
	C122.972603,85.152054 122.963699,100.783623 123.138870,116.412384 
	C123.148048,117.231575 125.027763,118.029808 126.816917,118.488487 
	C126.876495,102.477455 126.951050,86.466423 126.953766,70.455383 
	C126.953911,69.606987 126.346619,68.758492 125.570404,67.251839 
M253.570587,67.251961 
	C252.716400,68.008476 251.123993,68.758171 251.116943,69.522514 
	C250.972610,85.151947 250.963684,100.783569 251.138840,116.412392 
	C251.148041,117.231583 253.027786,118.029808 254.816925,118.488457 
	C254.876495,102.477516 254.951019,86.466568 254.953751,70.455620 
	C254.953903,69.607201 254.346771,68.758675 253.570587,67.251961 
M325.325592,66.038651 
	C324.533356,66.332245 323.741119,66.625847 322.275421,67.003716 
	C321.148895,67.656311 320.022400,68.308914 318.204132,69.017342 
	C308.839569,75.586304 304.126526,84.402878 305.037842,96.671356 
	C305.318665,97.460724 305.599518,98.250092 305.975128,99.820587 
	C307.688721,111.321426 319.883575,121.303604 331.782990,122.117935 
	C346.578552,123.130447 359.611969,111.367256 361.794495,100.504448 
	C362.227142,92.902435 362.522461,85.499496 358.236053,78.464211 
	C351.409149,67.259178 337.772980,62.194141 325.325592,66.038651 
M181.160278,83.685928 
	C181.987701,83.324875 182.943848,83.121857 183.618027,82.572678 
	C185.527328,81.017403 187.088730,78.862854 189.213425,77.783302 
	C192.659424,76.032417 193.133087,75.427635 190.324738,72.883789 
	C182.354263,65.663963 172.994339,62.852955 162.585693,65.901833 
	C146.538162,70.602448 139.289322,82.527138 142.024353,99.238007 
	C144.898071,116.796188 163.196793,125.909004 179.576797,120.543640 
	C180.707184,120.173370 181.843521,117.894615 181.890289,116.467766 
	C182.124466,109.322914 182.023148,102.165970 181.964798,95.013893 
	C181.956543,94.004112 181.536423,92.997696 181.306946,91.989723 
	C180.880661,91.930870 180.454391,91.872009 180.028107,91.813156 
	C179.687469,92.820732 179.135254,93.808884 179.040710,94.839035 
	C178.450363,101.271347 175.707199,103.588074 169.217087,102.991402 
	C164.866028,102.591377 159.966309,97.505661 160.006958,93.431648 
	C160.061295,87.985313 164.265915,83.673447 169.912735,84.131378 
	C173.148270,84.393761 176.277176,85.970772 179.553757,86.986847 
	C179.847870,85.628227 180.089157,84.513557 181.160278,83.685928 
M230.999832,92.523735 
	C230.999832,88.764862 230.999832,85.005989 230.999832,81.324265 
	C240.688644,80.527489 240.688644,80.527489 240.333984,76.992821 
	C228.563736,76.992821 216.756500,76.925766 204.952927,77.103439 
	C203.852768,77.120003 202.775940,78.686211 201.688278,79.532906 
	C201.977814,80.078743 202.267365,80.624580 202.556915,81.170418 
	C205.616577,81.170418 208.676239,81.170418 212.001038,81.170418 
	C212.001038,83.580734 212.000961,85.397072 212.001038,87.213402 
	C212.001434,96.541832 211.955322,105.870750 212.055283,115.198120 
	C212.069366,116.511253 212.797577,117.816742 213.195221,119.125778 
	C213.920181,119.006714 214.645126,118.887650 215.370087,118.768585 
	C215.370087,106.265503 215.370087,93.762421 215.370087,81.259338 
	C215.879944,81.274918 216.389786,81.290504 216.899643,81.306084 
	C216.899643,93.698151 216.899643,106.090218 216.899643,118.310722 
	C221.320175,120.065041 220.999451,117.375732 220.999161,115.006912 
	C220.997864,104.143318 220.998596,93.279724 220.998596,82.416130 
	C221.333038,82.417915 221.667496,82.419693 222.001938,82.421478 
	C222.001938,84.052299 222.001846,85.683113 222.001953,87.313934 
	C222.002518,96.642357 221.969818,105.970970 222.020691,115.299118 
	C222.040131,118.864334 222.127335,118.863861 226.074463,118.157440 
	C226.074463,106.286217 226.074463,94.344925 226.074463,82.403641 
	C226.365372,82.401344 226.656296,82.399048 226.947205,82.396751 
	C226.947205,94.426208 226.947205,106.455666 226.947205,118.318916 
	C230.629272,119.861961 231.041397,118.095749 231.019226,115.503815 
	C230.956558,108.174881 230.998886,100.845055 230.999832,92.523735 
M434.000458,90.548195 
	C434.001495,98.875229 434.042999,107.202560 433.979767,115.529106 
	C433.959808,118.155029 434.423279,119.850258 438.362305,118.178955 
	C438.362305,106.072784 438.362305,93.673515 438.362305,81.274254 
	C438.952850,81.280830 439.543427,81.287399 440.133972,81.293968 
	C440.133972,93.817299 440.133972,106.340622 440.133972,118.863953 
	C440.901001,118.898193 441.668030,118.932434 442.435059,118.966675 
	C443.704010,112.993309 442.805420,106.782234 442.961456,100.706184 
	C443.127716,94.232277 442.998840,87.750786 442.998840,81.272606 
	C443.550323,81.255013 444.101807,81.237411 444.653290,81.219818 
	C444.769012,82.736885 444.980133,84.253662 444.984894,85.771072 
	C445.015686,95.596893 444.957458,105.423294 445.055359,115.248230 
	C445.068237,116.539413 445.804840,117.823372 446.206268,119.110672 
	C446.938263,118.983688 447.670288,118.856697 448.402283,118.729713 
	C448.402283,106.238937 448.402283,93.748161 448.402283,81.257385 
	C448.935333,81.272629 449.468384,81.287880 450.001434,81.303123 
	C450.001434,82.910683 450.001343,84.518242 450.001434,86.125801 
	C450.001801,95.785172 449.958313,105.444977 450.053314,115.103409 
	C450.066498,116.443222 450.763580,117.776306 451.144012,119.112503 
	C451.775269,119.002853 452.406494,118.893204 453.037720,118.783562 
	C453.037720,106.261894 453.037720,93.740234 453.037720,81.212685 
	C457.137177,81.026123 460.503510,80.872932 463.869873,80.719734 
	C464.022186,80.299843 464.174469,79.879951 464.326782,79.460060 
	C463.360474,78.650070 462.403046,77.147636 461.426514,77.135109 
	C449.000916,76.975670 436.572540,77.030083 423.705170,77.030083 
	C425.108490,84.102943 431.033203,78.969215 434.000458,82.147758 
	C434.000458,84.293091 434.000458,86.928719 434.000458,90.548195 
M265.000854,77.449615 
	C265.000854,74.148659 265.000854,70.847702 265.000854,67.546753 
	C264.551849,67.241730 264.102814,66.936707 263.653809,66.631691 
	C262.774353,67.575111 261.138092,68.510803 261.128357,69.463120 
	C260.968323,85.114395 260.962982,100.768326 261.136993,116.419281 
	C261.147491,117.361534 262.955597,118.283791 263.927246,119.215347 
	C264.359314,118.854691 264.791412,118.494034 265.223511,118.133369 
	C265.223511,111.879547 265.223511,105.625725 265.223511,99.423218 
	C271.057220,99.423218 276.431396,99.423218 282.406372,99.423218 
	C282.406372,106.181282 282.406372,112.516716 282.406372,118.852142 
	C282.831329,118.960213 283.256287,119.068275 283.681244,119.176338 
	C284.113800,118.374962 284.919830,117.575363 284.923676,116.771957 
	C284.998596,100.952927 285.004944,85.133316 284.913361,69.314461 
	C284.908478,68.466209 283.920990,67.623642 283.390930,66.778427 
	C282.887634,66.924202 282.384338,67.069977 281.881042,67.215752 
	C281.881042,73.094284 281.881042,78.972816 281.881042,84.661240 
	C275.881744,84.661240 270.627411,84.661240 265.000885,84.661240 
	C265.000885,82.355286 265.000885,80.385666 265.000854,77.449615 
M128.006958,69.863533 
	C128.006958,86.112099 128.006958,102.360657 128.006958,118.609222 
	C128.519623,118.882019 129.032272,119.154816 129.544937,119.427620 
	C130.359924,118.406151 131.875122,117.391357 131.884933,116.362206 
	C132.033966,100.739853 132.003769,85.115540 131.931122,69.492073 
	C131.927460,68.704903 131.158142,67.921280 130.745331,67.136002 
	C129.840012,67.737846 128.934692,68.339691 128.006958,69.863533 
M137.000351,99.499420 
	C136.999557,89.863976 137.034821,80.228325 136.979172,70.593193 
	C136.958618,67.034676 136.861023,67.035240 133.247025,67.848206 
	C133.247025,84.744423 133.247025,101.640640 133.247025,118.536865 
	C133.692017,118.805855 134.137024,119.074852 134.582016,119.343842 
	C135.386368,118.212227 136.826920,117.112358 136.885254,115.943520 
	C137.141586,110.806244 136.998596,105.649048 137.000351,99.499420 
M256.000641,99.499420 
	C256.002411,104.980232 256.057007,110.461739 255.985626,115.941597 
	C255.944427,119.104164 257.233276,119.618774 259.996552,118.250488 
	C259.996552,102.194595 259.979309,86.260300 260.013123,70.326111 
	C260.018921,67.604424 259.382843,66.065598 256.000641,67.843315 
	C256.000641,77.948288 256.000641,88.224007 256.000641,99.499420 
M296.000061,82.504692 
	C296.000061,77.399071 296.000061,72.293449 296.000061,67.187820 
	C295.391235,66.984344 294.782410,66.780869 294.173553,66.577393 
	C293.450378,67.821777 292.154419,69.042885 292.102753,70.314545 
	C291.873535,75.956497 292.000336,81.612961 291.999969,87.264168 
	C291.999298,97.699318 291.999786,108.134476 291.999786,118.405769 
	C295.783081,119.850990 296.029572,117.919365 296.018341,115.415253 
	C295.970581,104.777893 295.999298,94.140198 296.000061,82.504692 
M300.971405,117.071602 
	C300.980408,101.610420 300.980835,86.149223 301.006775,70.688072 
	C301.011169,68.065903 300.925934,65.697220 297.006378,67.939178 
	C297.006378,83.880936 297.001312,99.990662 297.010651,116.100380 
	C297.012512,119.290718 298.290405,119.986481 300.971405,117.071602 
M451.482880,71.000786 
	C454.801361,70.995796 458.139679,71.192467 461.426880,70.869293 
	C462.484009,70.765366 463.406372,69.290779 464.390381,68.443253 
	C464.101166,68.048950 463.811951,67.654655 463.522736,67.260353 
	C450.490387,67.260353 437.458008,67.260353 424.490723,67.260353 
	C423.150330,70.799591 425.097992,71.036713 427.589600,71.018738 
	C435.221802,70.963654 442.854645,71.000000 451.482880,71.000786 
M452.472534,76.000168 
	C455.294708,75.998398 458.118652,75.933624 460.938629,76.011635 
	C464.096222,76.099007 464.610352,74.776306 463.382355,72.254288 
	C450.230591,72.254288 437.330750,72.254288 424.492218,72.254288 
	C423.156769,75.765564 425.065308,76.036880 427.576752,76.018967 
	C435.544861,75.962105 443.513702,75.999321 452.472534,76.000168 
M228.483337,76.000168 
	C231.636597,75.998352 234.791260,75.936577 237.942703,76.011551 
	C241.101898,76.086708 241.619919,74.769257 240.373596,72.257095 
	C227.561768,72.257095 214.997528,72.257095 202.425995,72.257095 
	C201.301849,75.645569 203.040512,76.047874 205.580963,76.023071 
	C212.882538,75.951775 220.185272,75.999321 228.483337,76.000168 
M287.000000,101.498146 
	C287.000000,107.301186 287.000000,113.104225 287.000000,118.907265 
	C287.600739,118.986458 288.201508,119.065643 288.802246,119.144836 
	C289.195587,118.313828 289.928467,117.484276 289.932037,116.651596 
	C289.999756,100.868851 290.005920,85.085602 289.912842,69.303116 
	C289.907867,68.458435 288.916534,67.619576 288.384369,66.778000 
	C287.922913,66.933487 287.461456,67.088974 287.000000,67.244469 
	C287.000000,78.329308 287.000000,89.414146 287.000000,101.498146 
M248.999985,112.347542 
	C248.999985,97.305527 248.999985,82.263519 248.999985,66.511414 
	C247.469193,67.297447 246.261002,67.625771 246.259201,67.960632 
	C246.167374,84.916733 246.178497,101.873383 246.178497,118.829979 
	C246.910812,118.903534 247.643143,118.977081 248.375458,119.050636 
	C248.583618,117.134178 248.791779,115.217728 248.999985,112.347542 
M209.607620,71.000198 
	C218.904877,70.999260 228.202316,70.965309 237.499268,71.018837 
	C240.066711,71.033623 241.861282,70.653641 240.467896,67.276794 
	C227.789520,67.276794 215.083374,67.276794 202.102280,67.276794 
	C201.935013,73.298958 206.434860,70.065491 209.607620,71.000198 
M121.000000,88.500160 
	C121.000000,81.369461 121.000000,74.238770 121.000000,67.108070 
	C120.402473,67.023453 119.804939,66.938843 119.207413,66.854225 
	C118.811111,67.682678 118.072754,68.509644 118.069153,69.339806 
	C118.000626,85.122284 117.994247,100.905289 118.086357,116.687523 
	C118.091301,117.534935 119.075233,118.376625 119.603439,119.220978 
	C120.068962,119.066795 120.534477,118.912621 121.000000,118.758438 
	C121.000000,109.005653 121.000000,99.252861 121.000000,88.500160 
M193.999756,111.393921 
	C194.003571,113.050873 193.652679,114.819321 194.127075,116.328354 
	C194.485626,117.469009 195.898560,118.278236 196.842239,119.234962 
	C197.148132,118.887787 197.454041,118.540604 197.759933,118.193428 
	C197.759933,109.958519 197.759933,101.723618 197.759933,93.488708 
	C197.334503,93.199944 196.909058,92.911171 196.483627,92.622406 
	C195.657532,93.751221 194.185303,94.843185 194.118469,96.015289 
	C193.845367,100.805046 194.001617,105.619278 193.999756,111.393921 
M186.998993,107.475334 
	C186.998993,93.545967 186.998993,93.545967 184.870804,92.174469 
	C182.687012,99.321526 183.718002,117.595421 186.998993,119.018211 
	C186.998993,115.336571 186.998993,111.898468 186.998993,107.475334 
M189.000580,101.557686 
	C189.000580,107.298286 189.000580,113.038887 189.000580,119.087463 
	C192.393784,117.465439 192.668488,114.936890 191.950333,95.736916 
	C191.901321,94.426559 191.173889,93.141579 190.761978,91.844788 
	C190.174850,91.978928 189.587708,92.113060 189.000580,92.247192 
	C189.000580,95.025101 189.000580,97.803001 189.000580,101.557686 
z"/>
<path fill="#69A169" opacity="1.000000" stroke="none" 
	d="
M180.745361,83.542404 
	C180.089157,84.513557 179.847870,85.628227 179.553757,86.986847 
	C176.277176,85.970772 173.148270,84.393761 169.912735,84.131378 
	C164.265915,83.673447 160.061295,87.985313 160.006958,93.431648 
	C159.966309,97.505661 164.866028,102.591377 169.217087,102.991402 
	C175.707199,103.588074 178.450363,101.271347 179.040710,94.839035 
	C179.135254,93.808884 179.687469,92.820732 180.028107,91.813156 
	C180.454391,91.872009 180.880661,91.930870 181.306946,91.989723 
	C181.536423,92.997696 181.956543,94.004112 181.964798,95.013893 
	C182.023148,102.165970 182.124466,109.322914 181.890289,116.467766 
	C181.843521,117.894615 180.707184,120.173370 179.576797,120.543640 
	C163.196793,125.909004 144.898071,116.796188 142.024353,99.238007 
	C139.289322,82.527138 146.538162,70.602448 162.585693,65.901833 
	C172.994339,62.852955 182.354263,65.663963 190.324738,72.883789 
	C193.133087,75.427635 192.659424,76.032417 189.213425,77.783302 
	C187.088730,78.862854 185.527328,81.017403 183.618027,82.572678 
	C182.943848,83.121857 181.987701,83.324875 180.745361,83.542404 
M156.283051,79.836090 
	C156.747498,79.745056 157.211960,79.654022 157.676407,79.562988 
	C157.593964,79.318512 157.511505,79.074036 157.429062,78.829567 
	C156.858612,79.096657 156.288147,79.363754 155.256393,80.221542 
	C155.061035,80.641060 154.865692,81.060577 154.670349,81.480103 
	C154.925858,81.544968 155.181366,81.609840 155.436874,81.674706 
	C155.498596,80.954842 155.560303,80.234970 156.283051,79.836090 
M157.745941,101.261459 
	C158.189911,101.815559 158.633865,102.369659 159.077820,102.923767 
	C159.280411,102.777489 159.483002,102.631210 159.685577,102.484932 
	C159.150925,101.632294 158.616272,100.779655 157.963821,99.103447 
	C157.651688,94.575859 157.339569,90.048271 157.071213,86.155495 
	C154.574219,90.440994 153.657791,95.488800 157.745941,101.261459 
M156.789215,113.348946 
	C156.403198,113.109879 156.017181,112.870811 155.631165,112.631737 
	C155.503067,112.855049 155.374985,113.078362 155.246902,113.301674 
	C155.937088,113.485077 156.627274,113.668480 157.284637,114.586380 
	C162.627213,118.488274 173.121750,119.441902 178.092972,115.955338 
	C170.689377,118.904434 163.955124,116.229492 156.789215,113.348946 
M164.618759,68.973152 
	C161.877075,70.068611 159.135391,71.164070 156.393707,72.259529 
	C156.504547,72.680481 156.615387,73.101440 156.726227,73.522392 
	C165.628036,68.502357 174.570709,68.801834 183.589050,73.019005 
	C178.009964,69.295021 172.270523,66.645500 164.618759,68.973152 
M147.842087,101.426559 
	C144.548447,94.345596 146.738892,87.498383 149.005600,80.654419 
	C143.161850,89.042076 143.600662,99.158241 150.413116,107.327415 
	C149.627014,105.618881 148.840912,103.910355 147.842087,101.426559 
M150.002838,91.782440 
	C150.856003,96.064629 151.709183,100.346825 152.562347,104.629013 
	C153.178421,104.528801 153.794479,104.428581 154.410538,104.328369 
	C150.540344,97.108879 150.945282,89.800140 154.450531,82.426674 
	C153.992188,82.372711 153.533844,82.318741 153.075500,82.264778 
	C152.054764,85.150543 151.034027,88.036308 150.002838,91.782440 
M164.556076,75.837540 
	C169.833298,75.837540 175.110519,75.837540 179.150436,75.837540 
	C172.665024,72.247635 165.565750,72.375252 158.750488,77.565842 
	C161.059570,76.831802 162.396667,76.406746 164.556076,75.837540 
M173.657288,111.755386 
	C168.536758,111.061203 163.416229,110.367027 159.130951,109.786079 
	C165.271255,113.637794 172.957397,114.456772 176.943100,111.002060 
	C175.855988,111.111160 175.063431,111.190697 173.657288,111.755386 
M171.074890,78.577660 
	C167.776306,79.340324 164.477737,80.102989 161.179153,80.865646 
	C161.252609,81.449333 161.326050,82.033028 161.399506,82.616714 
	C167.125107,79.093964 172.830673,79.113373 178.516556,82.613747 
	C178.599365,82.148453 178.682175,81.683159 178.764984,81.217857 
	C176.440918,80.449249 174.116867,79.680641 171.074890,78.577660 
M155.958496,74.096672 
	C155.632843,73.984894 155.307205,73.873116 154.981552,73.761337 
	C154.922348,74.014717 154.863144,74.268097 154.803940,74.521477 
	C155.079422,74.577454 155.354889,74.633430 155.958496,74.096672 
M184.053055,74.150230 
	C184.404907,74.327446 184.756760,74.504654 185.108612,74.681870 
	C184.830093,74.290573 184.551590,73.899277 184.053055,74.150230 
M150.676498,79.640465 
	C150.632721,79.355339 150.588943,79.070221 150.545166,78.785095 
	C150.290482,78.839783 150.035797,78.894470 149.781113,78.949150 
	C149.874496,79.287262 149.967880,79.625374 150.676498,79.640465 
M160.241684,103.530159 
	C160.328735,103.933601 160.415787,104.337051 160.502838,104.740501 
	C160.742142,104.633568 161.150406,104.561272 161.181107,104.411568 
	C161.227005,104.187637 161.007324,103.909279 160.241684,103.530159 
z"/>
<path fill="#69A169" opacity="1.000000" stroke="none" 
	d="
M87.060669,78.904938 
	C88.839516,81.177673 90.618355,83.450401 92.800682,86.238640 
	C92.800682,77.463432 92.800682,69.130905 92.800682,60.740082 
	C95.877510,59.405525 97.047203,60.103920 97.018402,63.143581 
	C96.939659,71.451698 96.973869,79.760887 96.567749,88.462570 
	C92.417542,88.303177 88.596939,87.087860 84.933624,87.452530 
	C82.808754,87.664062 80.936737,90.415619 78.950928,92.024155 
	C80.613480,92.735962 82.391235,94.230156 83.915909,94.005646 
	C87.733078,93.443558 91.435539,92.102509 95.184021,91.073959 
	C95.791618,92.156288 96.399216,93.238617 96.720688,94.663940 
	C95.373657,95.589188 94.312767,96.171440 93.251869,96.753693 
	C93.725105,97.334183 94.452324,98.482979 94.630531,98.403336 
	C95.826157,97.868988 96.950882,97.131599 97.985596,96.316589 
	C98.210312,96.139587 97.976555,95.380531 97.953964,94.889549 
	C97.970573,84.415909 98.039474,73.941910 97.968147,63.468872 
	C97.949608,60.746429 98.589836,59.357273 101.548386,60.364277 
	C101.548386,74.304558 101.548386,88.077461 101.548386,101.850357 
	C102.032417,101.847725 102.516441,101.845085 103.000473,101.842445 
	C103.000473,89.290192 102.995003,76.737923 103.005508,64.185677 
	C103.007408,61.916462 102.515266,59.145939 106.715500,60.379494 
	C106.715500,76.970703 106.715500,93.590759 106.690918,110.800423 
	C105.791061,112.287338 104.915794,113.184639 104.031456,114.424126 
	C104.686073,115.875641 105.349754,116.984985 105.969009,118.080368 
	C105.924583,118.066414 105.833817,118.045517 105.833817,118.045517 
	C104.659988,118.262520 103.486160,118.479530 102.119339,118.022720 
	C101.463982,115.438339 101.313911,113.359604 100.412422,111.685501 
	C99.934753,110.798454 98.151466,110.614479 96.717087,110.023026 
	C96.206978,109.721840 95.937363,109.510742 95.484222,109.054848 
	C95.160622,108.219070 95.020561,107.628090 95.220169,107.024338 
	C96.617889,106.493599 97.675941,105.975647 98.734001,105.457687 
	C98.454231,104.915154 98.174469,104.372620 97.894699,103.830078 
	C96.652168,104.552734 95.409645,105.275391 94.051300,105.741745 
	C93.525154,105.102600 93.114830,104.719749 92.502747,104.069244 
	C91.529449,102.502968 90.757904,101.204361 90.011826,99.931915 
	C90.037300,99.958092 90.086624,100.011963 89.972168,99.708443 
	C89.220131,98.298180 88.582565,97.191444 87.835861,96.049957 
	C87.497192,95.972328 87.273506,95.995338 87.036110,96.398422 
	C87.050331,97.130112 87.084122,97.547615 86.769707,98.000000 
	C85.287918,98.692970 84.154343,99.351067 83.159973,100.257187 
	C83.857208,101.002327 84.415237,101.499451 85.185287,102.230331 
	C87.302917,103.295319 89.208527,104.126541 91.316185,104.985046 
	C91.518234,105.012321 91.921059,105.075699 92.065903,105.377792 
	C93.116905,107.147942 94.023071,108.615990 95.066559,110.385323 
	C96.159592,111.820480 97.115303,112.954353 98.036285,114.042625 
	C98.001556,113.997025 97.930000,113.907448 97.930000,113.907448 
	C98.454063,115.444069 98.978134,116.980682 99.747780,119.237373 
	C98.021111,118.686943 96.626396,118.242340 94.785103,117.310883 
	C93.805519,115.974670 93.272514,115.125313 92.739510,114.275948 
	C92.470192,114.430916 92.200874,114.585884 91.931564,114.740852 
	C92.593765,115.851677 93.255974,116.962509 93.918182,118.073334 
	C91.383263,120.232307 89.580383,118.637939 88.340004,116.633354 
	C83.365318,108.593658 78.559250,100.449623 73.429749,91.911545 
	C73.776772,90.638947 74.384872,89.798973 75.151398,88.872406 
	C75.215675,88.193642 75.121529,87.601486 74.923836,86.752426 
	C71.933884,82.806595 71.759872,88.252686 69.882401,87.961693 
	C69.319206,86.814789 68.756020,85.667892 67.646835,84.760437 
	C66.122887,84.999847 65.144928,84.999817 64.166969,84.999794 
	C62.842602,82.165283 66.663025,79.048393 63.204681,76.337769 
	C62.442684,76.578461 62.165726,76.785767 61.548576,76.994133 
	C60.527996,76.996719 59.847610,76.998253 59.167225,76.999786 
	C59.124081,76.248032 59.080936,75.496284 59.328918,74.320984 
	C59.968559,73.603584 60.317078,73.309715 60.665596,73.015854 
	C60.166523,72.677177 59.667454,72.338501 59.168385,71.999825 
	C58.677853,70.104149 58.187321,68.208481 57.037178,66.170792 
	C55.640793,66.019112 54.904018,66.009445 54.167248,65.999786 
	C54.123440,64.930893 54.079632,63.862003 54.328926,62.262001 
	C55.081299,61.209496 55.540569,60.688099 55.999840,60.166702 
	C57.170372,60.661667 58.340904,61.156635 59.772274,61.329544 
	C60.033112,61.007481 59.967670,60.917103 59.691704,61.247833 
	C60.642036,63.059601 61.868332,64.540642 63.069443,65.994629 
	C63.044254,65.967583 62.995628,65.911926 62.657894,66.116089 
	C63.178860,67.485603 64.037560,68.650955 65.080658,70.118042 
	C65.847939,71.945084 66.430801,73.470398 67.170242,75.259071 
	C69.028603,75.789383 70.935829,76.668907 72.385109,76.182884 
	C74.686249,75.411186 76.681557,73.727470 78.107773,72.856239 
	C76.699989,70.213631 75.277359,67.543159 73.888107,64.567581 
	C73.906929,63.853695 73.892372,63.444920 74.041718,62.771988 
	C74.470657,61.727268 74.735710,60.946705 75.000755,60.166142 
	C78.998764,66.185257 82.996780,72.204369 86.710861,78.570381 
	C83.521370,79.070686 80.615822,79.224091 77.710266,79.377495 
	C77.564621,80.032486 77.418976,80.687469 77.273323,81.342461 
	C78.897453,82.368050 81.178734,84.622765 82.015366,84.175453 
	C84.053741,83.085602 85.422348,80.743034 87.060669,78.904938 
M70.655190,81.503502 
	C70.876122,81.540634 71.097046,81.577759 71.317978,81.614891 
	C71.119476,81.506958 70.920975,81.399025 70.655190,81.503502 
z"/>
<path fill="#69A169" opacity="1.000000" stroke="none" 
	d="
M361.122559,101.035492 
	C359.611969,111.367256 346.578552,123.130447 331.782990,122.117935 
	C319.883575,121.303604 307.688721,111.321426 306.296906,99.424072 
	C307.356995,99.018867 308.095337,99.010162 308.999207,99.325523 
	C310.419495,102.127716 311.674225,104.605843 313.043030,107.352158 
	C313.645447,107.939262 314.133789,108.258163 314.622162,108.577065 
	C314.778687,108.369614 314.935211,108.162163 315.091705,107.954712 
	C314.621826,107.411926 314.151947,106.869133 313.456085,106.038055 
	C310.922729,100.340500 308.412567,94.958534 311.225342,89.056931 
	C312.271515,89.478920 313.052551,89.739372 313.899292,90.440292 
	C314.023468,95.128075 313.379974,99.545570 317.255096,102.935936 
	C318.759827,102.573318 319.901611,102.230392 321.316376,102.012955 
	C321.724335,102.286362 321.859375,102.434265 322.174683,102.747772 
	C323.042511,103.610924 323.730103,104.308479 324.624023,105.189575 
	C324.900421,105.543373 324.970490,105.713631 324.810089,105.997871 
	C322.053833,107.077507 319.528107,108.043152 316.967529,109.123184 
	C316.887695,109.476112 316.915039,109.706703 317.168945,110.181854 
	C317.571411,110.970490 317.819733,111.506638 318.164673,112.374428 
	C322.507538,114.525978 326.753845,116.345871 331.109131,118.326462 
	C331.810211,118.386475 332.402252,118.285789 333.424377,118.118820 
	C339.046387,117.838882 344.293427,117.765106 347.959045,112.774475 
	C348.842407,112.616371 349.320557,112.335739 349.798706,112.055099 
	C349.690979,111.882439 349.583252,111.709778 349.475555,111.537117 
	C348.876984,111.944168 348.278412,112.351219 347.339233,112.873222 
	C341.302094,115.854744 335.585266,118.604401 329.154358,115.891090 
	C329.899292,114.829872 330.449585,113.998344 331.436584,113.101227 
	C335.949341,112.017525 340.025452,110.999413 344.062408,110.012985 
	C344.023285,110.044678 343.944244,110.107056 344.275574,109.975746 
	C345.599060,109.232040 346.591278,108.619637 347.653625,107.935669 
	C347.723755,107.864098 348.008911,107.582451 348.237427,107.291733 
	C348.661102,106.307892 348.856293,105.614769 349.023895,104.959656 
	C348.996338,104.997673 348.940430,105.073143 349.280334,104.944366 
	C356.235413,95.561546 354.117798,89.357544 349.547516,81.323837 
	C349.329102,80.939911 348.151459,81.101700 347.282166,80.861816 
	C346.759399,80.336006 346.375000,79.957733 346.375610,79.319328 
	C340.517944,72.188148 328.730408,70.926407 321.851013,78.175697 
	C318.794556,78.679398 315.926422,78.921608 312.888611,79.474075 
	C311.416931,84.189560 310.114960,88.594795 308.564056,93.160934 
	C307.265564,94.214325 306.216003,95.106804 305.166412,95.999283 
	C304.126526,84.402878 308.839569,75.586304 318.898987,68.962891 
	C320.712189,68.245430 321.830536,67.582428 322.948883,66.919434 
	C323.741119,66.625847 324.533356,66.332245 325.666931,66.471436 
	C326.018646,67.642067 326.029053,68.379906 325.882324,69.399033 
	C324.749939,70.275734 323.774719,70.871140 322.799469,71.466545 
	C331.240204,68.469620 339.219208,69.555443 347.035278,73.031654 
	C346.997253,73.004257 346.921753,72.948776 347.148560,73.364365 
	C348.111084,73.850288 348.846771,73.920624 349.776245,74.198578 
	C351.316528,75.743568 352.663086,77.080933 353.635254,78.704224 
	C357.977112,87.592529 358.397766,96.365471 354.055176,105.549774 
	C353.230835,106.924248 352.657562,108.066528 352.084259,109.208809 
	C352.344910,109.341331 352.605560,109.473854 352.866211,109.606369 
	C353.601929,108.431282 354.337677,107.256195 355.369446,105.908096 
	C356.403992,104.143494 357.142517,102.551903 358.286224,100.969818 
	C359.501801,100.998055 360.312164,101.016777 361.122559,101.035492 
z"/>
<path fill="#69A169" opacity="1.000000" stroke="none" 
	d="
M230.999832,93.019653 
	C230.998886,100.845055 230.956558,108.174881 231.019226,115.503815 
	C231.041397,118.095749 230.629272,119.861961 226.947205,118.318916 
	C226.947205,106.455666 226.947205,94.426208 226.947205,82.396751 
	C226.656296,82.399048 226.365372,82.401344 226.074463,82.403641 
	C226.074463,94.344925 226.074463,106.286217 226.074463,118.157440 
	C222.127335,118.863861 222.040131,118.864334 222.020691,115.299118 
	C221.969818,105.970970 222.002518,96.642357 222.001953,87.313934 
	C222.001846,85.683113 222.001938,84.052299 222.001938,82.421478 
	C221.667496,82.419693 221.333038,82.417915 220.998596,82.416130 
	C220.998596,93.279724 220.997864,104.143318 220.999161,115.006912 
	C220.999451,117.375732 221.320175,120.065041 216.899643,118.310722 
	C216.899643,106.090218 216.899643,93.698151 216.899643,81.306084 
	C216.389786,81.290504 215.879944,81.274918 215.370087,81.259338 
	C215.370087,93.762421 215.370087,106.265503 215.370087,118.768585 
	C214.645126,118.887650 213.920181,119.006714 213.195221,119.125778 
	C212.797577,117.816742 212.069366,116.511253 212.055283,115.198120 
	C211.955322,105.870750 212.001434,96.541832 212.001038,87.213402 
	C212.000961,85.397072 212.001038,83.580734 212.001038,81.170418 
	C208.676239,81.170418 205.616577,81.170418 202.556915,81.170418 
	C202.267365,80.624580 201.977814,80.078743 201.688278,79.532906 
	C202.775940,78.686211 203.852768,77.120003 204.952927,77.103439 
	C216.756500,76.925766 228.563736,76.992821 240.333984,76.992821 
	C240.688644,80.527489 240.688644,80.527489 230.999832,81.324265 
	C230.999832,85.005989 230.999832,88.764862 230.999832,93.019653 
z"/>
<path fill="#69A169" opacity="1.000000" stroke="none" 
	d="
M434.000458,90.056274 
	C434.000458,86.928719 434.000458,84.293091 434.000458,82.147758 
	C431.033203,78.969215 425.108490,84.102943 423.705170,77.030083 
	C436.572540,77.030083 449.000916,76.975670 461.426514,77.135109 
	C462.403046,77.147636 463.360474,78.650070 464.326782,79.460060 
	C464.174469,79.879951 464.022186,80.299843 463.869873,80.719734 
	C460.503510,80.872932 457.137177,81.026123 453.037720,81.212685 
	C453.037720,93.740234 453.037720,106.261894 453.037720,118.783562 
	C452.406494,118.893204 451.775269,119.002853 451.144012,119.112503 
	C450.763580,117.776306 450.066498,116.443222 450.053314,115.103409 
	C449.958313,105.444977 450.001801,95.785172 450.001434,86.125801 
	C450.001343,84.518242 450.001434,82.910683 450.001434,81.303123 
	C449.468384,81.287880 448.935333,81.272629 448.402283,81.257385 
	C448.402283,93.748161 448.402283,106.238937 448.402283,118.729713 
	C447.670288,118.856697 446.938263,118.983688 446.206268,119.110672 
	C445.804840,117.823372 445.068237,116.539413 445.055359,115.248230 
	C444.957458,105.423294 445.015686,95.596893 444.984894,85.771072 
	C444.980133,84.253662 444.769012,82.736885 444.653290,81.219818 
	C444.101807,81.237411 443.550323,81.255013 442.998840,81.272606 
	C442.998840,87.750786 443.127716,94.232277 442.961456,100.706184 
	C442.805420,106.782234 443.704010,112.993309 442.435059,118.966675 
	C441.668030,118.932434 440.901001,118.898193 440.133972,118.863953 
	C440.133972,106.340622 440.133972,93.817299 440.133972,81.293968 
	C439.543427,81.287399 438.952850,81.280830 438.362305,81.274254 
	C438.362305,93.673515 438.362305,106.072784 438.362305,118.178955 
	C434.423279,119.850258 433.959808,118.155029 433.979767,115.529106 
	C434.042999,107.202560 434.001495,98.875229 434.000458,90.056274 
z"/>
<path fill="#69A169" opacity="1.000000" stroke="none" 
	d="
M265.000854,77.932831 
	C265.000885,80.385666 265.000885,82.355286 265.000885,84.661240 
	C270.627411,84.661240 275.881744,84.661240 281.881042,84.661240 
	C281.881042,78.972816 281.881042,73.094284 281.881042,67.215752 
	C282.384338,67.069977 282.887634,66.924202 283.390930,66.778427 
	C283.920990,67.623642 284.908478,68.466209 284.913361,69.314461 
	C285.004944,85.133316 284.998596,100.952927 284.923676,116.771957 
	C284.919830,117.575363 284.113800,118.374962 283.681244,119.176338 
	C283.256287,119.068275 282.831329,118.960213 282.406372,118.852142 
	C282.406372,112.516716 282.406372,106.181282 282.406372,99.423218 
	C276.431396,99.423218 271.057220,99.423218 265.223511,99.423218 
	C265.223511,105.625725 265.223511,111.879547 265.223511,118.133369 
	C264.791412,118.494034 264.359314,118.854691 263.927246,119.215347 
	C262.955597,118.283791 261.147491,117.361534 261.136993,116.419281 
	C260.962982,100.768326 260.968323,85.114395 261.128357,69.463120 
	C261.138092,68.510803 262.774353,67.575111 263.653809,66.631691 
	C264.102814,66.936707 264.551849,67.241730 265.000854,67.546753 
	C265.000854,70.847702 265.000854,74.148659 265.000854,77.932831 
z"/>
<path fill="#69A169" opacity="1.000000" stroke="none" 
	d="
M413.046356,107.165695 
	C414.030762,103.963760 415.722443,100.792770 415.864166,97.553963 
	C416.256470,88.588226 416.031982,79.594055 415.984589,70.611473 
	C415.971497,68.130814 416.180511,66.149338 419.145569,67.267082 
	C419.145569,78.800491 420.066132,90.263107 418.890564,101.506554 
	C417.678162,113.102409 409.232147,119.600021 398.270966,121.652054 
	C387.685974,123.633652 378.190796,120.195107 371.986908,111.145187 
	C369.280457,107.197159 367.635132,101.944267 367.213165,97.134346 
	C366.460083,88.550293 366.955872,79.852180 367.046509,71.202995 
	C367.061615,69.763176 367.669312,68.329559 368.709259,67.005493 
	C371.733795,80.442612 366.889465,94.763481 374.920990,107.183296 
	C374.683472,106.661263 374.445953,106.139229 374.611389,105.231171 
	C375.845428,104.620857 376.676453,104.396576 377.507507,104.172295 
	C377.507507,104.172295 377.733185,104.246201 377.626251,104.725395 
	C376.400177,108.310524 375.841827,111.028458 380.506805,111.593773 
	C381.414185,111.703735 382.149536,113.233398 382.645081,114.087067 
	C382.091614,114.231224 381.703735,114.365746 381.662811,114.569817 
	C381.614105,114.812965 381.786163,115.210838 381.994171,115.378769 
	C386.730469,119.202866 398.979004,118.981804 405.072021,115.010193 
	C405.042908,115.037125 404.987274,115.093666 405.376221,114.911095 
	C406.506226,113.626869 407.247284,112.525223 408.138184,111.286469 
	C408.666473,110.762375 409.044983,110.375389 409.642639,110.391457 
	C410.939362,109.525772 412.016968,108.257034 413.079895,107.031921 
	C413.065186,107.075562 413.046356,107.165695 413.046356,107.165695 
z"/>
<path fill="#69A169" opacity="1.000000" stroke="none" 
	d="
M385.833130,97.000336 
	C387.399902,101.222984 390.478882,103.719223 394.900757,102.802940 
	C399.275421,101.896461 401.155609,98.558769 401.047089,93.943222 
	C400.871277,86.464134 400.940033,78.976967 401.052185,71.495415 
	C401.074127,70.030655 401.762634,68.575890 402.571838,67.599937 
	C403.348145,77.751785 403.696289,87.420212 404.044434,97.088638 
	C403.811401,98.557846 403.578369,100.027061 403.671509,101.795471 
	C403.997620,102.094681 404.087952,101.984085 403.824280,101.670082 
	C402.978210,101.904396 402.395813,102.452705 401.647491,103.252716 
	C401.667450,105.375336 401.853271,107.246269 401.837646,109.428558 
	C394.546814,113.594955 388.069977,112.267723 381.938049,107.349007 
	C381.866913,107.277695 381.582428,106.992432 381.320007,106.774841 
	C380.349579,106.011345 379.641571,105.465439 378.965271,104.958664 
	C378.996948,104.997795 379.060944,105.075546 379.060974,105.075546 
	C378.055695,92.667557 377.050415,80.259575 376.045166,67.851585 
	C379.927521,66.437996 381.045563,67.204414 381.020477,70.185272 
	C380.947937,78.807831 380.898865,87.433380 381.068787,96.053253 
	C381.112030,98.246719 382.003815,100.423454 382.505707,102.607872 
	C382.897095,102.513092 383.288513,102.418312 383.679901,102.323524 
	C383.446594,101.133301 383.213257,99.943077 383.224121,98.279411 
	C384.256561,97.537422 385.044830,97.268875 385.833130,97.000336 
M385.795807,105.262527 
	C385.795807,105.262527 385.925659,105.081650 385.925659,105.081650 
	C385.925659,105.081650 385.734802,105.193855 385.795807,105.262527 
M395.482300,107.003380 
	C395.482300,107.003380 395.514587,106.994278 395.482300,107.003380 
z"/>
<path fill="#69A169" opacity="1.000000" stroke="none" 
	d="
M381.582428,106.992432 
	C381.582428,106.992432 381.866913,107.277695 381.555969,107.615311 
	C387.229431,114.619667 397.921661,115.078003 404.048218,108.968384 
	C404.003632,109.004433 403.912048,109.073479 404.327576,109.024101 
	C405.168030,108.285980 405.592987,107.597229 405.962433,106.953850 
	C405.906921,106.999214 405.790283,107.082581 405.790283,107.082581 
	C407.526215,103.899391 410.500702,100.813332 410.759430,97.514290 
	C411.458252,88.603485 411.028870,79.601913 410.984863,70.636673 
	C410.972839,68.188881 411.125519,66.152008 415.123291,67.616409 
	C413.745453,80.446724 417.617828,93.744301 412.707031,106.860397 
	C413.046356,107.165695 413.065186,107.075562 412.805023,106.718513 
	C411.504395,107.570450 410.463959,108.779434 409.423492,109.988403 
	C409.044983,110.375389 408.666473,110.762375 407.864624,111.583679 
	C406.623291,113.043228 405.805267,114.068443 404.987274,115.093658 
	C404.987274,115.093666 405.042908,115.037125 404.739746,114.717819 
	C397.235046,117.563400 390.063232,118.528748 382.964233,114.108215 
	C382.149536,113.233398 381.414185,111.703735 380.506805,111.593773 
	C375.841827,111.028458 376.400177,108.310524 377.665771,104.837372 
	C378.057068,104.665489 378.325134,104.820824 378.838654,105.005852 
	C379.060944,105.075546 378.996948,104.997795 379.036072,105.426018 
	C379.910919,106.233635 380.746674,106.613037 381.582428,106.992432 
z"/>
<path fill="#69A169" opacity="1.000000" stroke="none" 
	d="
M128.018158,69.402534 
	C128.934692,68.339691 129.840012,67.737846 130.745331,67.136002 
	C131.158142,67.921280 131.927460,68.704903 131.931122,69.492073 
	C132.003769,85.115540 132.033966,100.739853 131.884933,116.362206 
	C131.875122,117.391357 130.359924,118.406151 129.544937,119.427620 
	C129.032272,119.154816 128.519623,118.882019 128.006958,118.609222 
	C128.006958,102.360657 128.006958,86.112099 128.018158,69.402534 
z"/>
<path fill="#69A169" opacity="1.000000" stroke="none" 
	d="
M137.000351,99.999245 
	C136.998596,105.649048 137.141586,110.806244 136.885254,115.943520 
	C136.826920,117.112358 135.386368,118.212227 134.582016,119.343842 
	C134.137024,119.074852 133.692017,118.805855 133.247025,118.536865 
	C133.247025,101.640640 133.247025,84.744423 133.245422,67.847626 
	C136.861023,67.035240 136.958618,67.034676 136.979172,70.593193 
	C137.034821,80.228325 136.999557,89.863976 137.000351,99.999245 
z"/>
<path fill="#69A169" opacity="1.000000" stroke="none" 
	d="
M256.000641,98.999573 
	C256.000641,88.224007 256.000641,77.948288 256.000641,67.843315 
	C259.382843,66.065598 260.018921,67.604424 260.013123,70.326111 
	C259.979309,86.260300 259.996552,102.194595 259.996552,118.250488 
	C257.233276,119.618774 255.944427,119.104164 255.985626,115.941597 
	C256.057007,110.461739 256.002411,104.980232 256.000641,98.999573 
z"/>
<path fill="#69A169" opacity="1.000000" stroke="none" 
	d="
M296.000061,83.003662 
	C295.999298,94.140198 295.970581,104.777893 296.018341,115.415253 
	C296.029572,117.919365 295.783081,119.850990 291.999786,118.405769 
	C291.999786,108.134476 291.999298,97.699318 291.999969,87.264168 
	C292.000336,81.612961 291.873535,75.956497 292.102753,70.314545 
	C292.154419,69.042885 293.450378,67.821777 294.173553,66.577393 
	C294.782410,66.780869 295.391235,66.984344 296.000061,67.187820 
	C296.000061,72.293449 296.000061,77.399071 296.000061,83.003662 
z"/>
<path fill="#69A069" opacity="1.000000" stroke="none" 
	d="
M300.916565,117.529282 
	C298.290405,119.986481 297.012512,119.290718 297.010651,116.100380 
	C297.001312,99.990662 297.006378,83.880936 297.006378,67.939178 
	C300.925934,65.697220 301.011169,68.065903 301.006775,70.688072 
	C300.980835,86.149223 300.980408,101.610420 300.916565,117.529282 
z"/>
<path fill="#69A169" opacity="1.000000" stroke="none" 
	d="
M326.039459,69.117744 
	C326.029053,68.379906 326.018646,67.642067 326.004578,66.535286 
	C337.772980,62.194141 351.409149,67.259178 358.236053,78.464211 
	C362.522461,85.499496 362.227142,92.902435 361.458527,100.769974 
	C360.312164,101.016777 359.501801,100.998055 358.333801,100.549759 
	C360.265594,92.226112 357.951538,85.173447 354.009613,78.418304 
	C352.663086,77.080933 351.316528,75.743568 349.485657,73.970039 
	C348.308136,73.338852 347.614929,73.143814 346.921753,72.948776 
	C346.921753,72.948776 346.997253,73.004257 346.903046,72.688675 
	C340.417603,67.894440 333.420685,67.280205 326.039459,69.117744 
z"/>
<path fill="#69A169" opacity="1.000000" stroke="none" 
	d="
M108.047012,112.889740 
	C108.364532,111.205193 108.949120,109.522003 108.957657,107.835892 
	C109.030922,93.372177 108.972183,78.907806 109.041428,64.444046 
	C109.048676,62.928673 109.627968,61.416039 109.941864,59.902134 
	C110.501114,60.010525 111.060371,60.118916 111.619629,60.227303 
	C111.619629,79.715591 111.619629,99.203888 111.619629,119.474754 
	C109.621338,118.665077 108.042122,118.025200 106.148361,117.715424 
	C105.833817,118.045517 105.924583,118.066414 106.285988,117.796463 
	C106.416756,116.722061 106.186111,115.917603 106.163483,114.889725 
	C106.930000,114.074127 107.488510,113.481934 108.047012,112.889740 
z"/>
<path fill="#69A169" opacity="1.000000" stroke="none" 
	d="
M450.985046,71.000786 
	C442.854645,71.000000 435.221802,70.963654 427.589600,71.018738 
	C425.097992,71.036713 423.150330,70.799591 424.490723,67.260353 
	C437.458008,67.260353 450.490387,67.260353 463.522736,67.260353 
	C463.811951,67.654655 464.101166,68.048950 464.390381,68.443253 
	C463.406372,69.290779 462.484009,70.765366 461.426880,70.869293 
	C458.139679,71.192467 454.801361,70.995796 450.985046,71.000786 
z"/>
<path fill="#69A169" opacity="1.000000" stroke="none" 
	d="
M451.977386,76.000168 
	C443.513702,75.999321 435.544861,75.962105 427.576752,76.018967 
	C425.065308,76.036880 423.156769,75.765564 424.492218,72.254288 
	C437.330750,72.254288 450.230591,72.254288 463.382355,72.254288 
	C464.610352,74.776306 464.096222,76.099007 460.938629,76.011635 
	C458.118652,75.933624 455.294708,75.998398 451.977386,76.000168 
z"/>
<path fill="#69A169" opacity="1.000000" stroke="none" 
	d="
M54.101505,66.464401 
	C54.904018,66.009445 55.640793,66.019112 56.745926,66.035210 
	C57.114285,83.600960 57.114285,101.160278 57.114285,118.719589 
	C56.427250,118.845238 55.740215,118.970886 55.053181,119.096535 
	C54.702515,117.649666 54.052670,116.203957 54.047077,114.755760 
	C53.985531,98.813744 54.024239,82.871330 54.101505,66.464401 
z"/>
<path fill="#69A169" opacity="1.000000" stroke="none" 
	d="
M227.985443,76.000168 
	C220.185272,75.999321 212.882538,75.951775 205.580963,76.023071 
	C203.040512,76.047874 201.301849,75.645569 202.425995,72.257095 
	C214.997528,72.257095 227.561768,72.257095 240.373596,72.257095 
	C241.619919,74.769257 241.101898,76.086708 237.942703,76.011551 
	C234.791260,75.936577 231.636597,75.998352 227.985443,76.000168 
z"/>
<path fill="#69A169" opacity="1.000000" stroke="none" 
	d="
M287.000000,100.998566 
	C287.000000,89.414146 287.000000,78.329308 287.000000,67.244469 
	C287.461456,67.088974 287.922913,66.933487 288.384369,66.778000 
	C288.916534,67.619576 289.907867,68.458435 289.912842,69.303116 
	C290.005920,85.085602 289.999756,100.868851 289.932037,116.651596 
	C289.928467,117.484276 289.195587,118.313828 288.802246,119.144836 
	C288.201508,119.065643 287.600739,118.986458 287.000000,118.907265 
	C287.000000,113.104225 287.000000,107.301186 287.000000,100.998566 
z"/>
<path fill="#69A169" opacity="1.000000" stroke="none" 
	d="
M254.036682,118.837799 
	C253.027786,118.029808 251.148041,117.231583 251.138840,116.412392 
	C250.963684,100.783569 250.972610,85.151947 251.116943,69.522514 
	C251.123993,68.758171 252.716400,68.008476 253.792450,68.055389 
	C254.021759,85.518478 254.029221,102.178139 254.036682,118.837799 
z"/>
<path fill="#69A169" opacity="1.000000" stroke="none" 
	d="
M248.999969,112.824402 
	C248.791779,115.217728 248.583618,117.134178 248.375458,119.050636 
	C247.643143,118.977081 246.910812,118.903534 246.178497,118.829979 
	C246.178497,101.873383 246.167374,84.916733 246.259201,67.960632 
	C246.261002,67.625771 247.469193,67.297447 248.999985,66.511414 
	C248.999985,82.263519 248.999985,97.305527 248.999969,112.824402 
z"/>
<path fill="#69A169" opacity="1.000000" stroke="none" 
	d="
M209.123840,71.000198 
	C206.434860,70.065491 201.935013,73.298958 202.102280,67.276794 
	C215.083374,67.276794 227.789520,67.276794 240.467896,67.276794 
	C241.861282,70.653641 240.066711,71.033623 237.499268,71.018837 
	C228.202316,70.965309 218.904877,70.999260 209.123840,71.000198 
z"/>
<path fill="#69A169" opacity="1.000000" stroke="none" 
	d="
M126.036652,118.837799 
	C125.027763,118.029808 123.148048,117.231575 123.138870,116.412384 
	C122.963699,100.783623 122.972603,85.152054 123.116936,69.522682 
	C123.124001,68.758240 124.716286,68.008446 125.792313,68.055267 
	C126.021690,85.518394 126.029175,102.178101 126.036652,118.837799 
z"/>
<path fill="#69A169" opacity="1.000000" stroke="none" 
	d="
M121.000000,89.000114 
	C121.000000,99.252861 121.000000,109.005653 121.000000,118.758438 
	C120.534477,118.912621 120.068962,119.066795 119.603439,119.220978 
	C119.075233,118.376625 118.091301,117.534935 118.086357,116.687523 
	C117.994247,100.905289 118.000626,85.122284 118.069153,69.339806 
	C118.072754,68.509644 118.811111,67.682678 119.207413,66.854225 
	C119.804939,66.938843 120.402473,67.023453 121.000000,67.108070 
	C121.000000,74.238770 121.000000,81.369461 121.000000,89.000114 
z"/>
<path fill="#69A169" opacity="1.000000" stroke="none" 
	d="
M377.309814,103.841293 
	C376.676453,104.396576 375.845428,104.620857 374.590607,104.922356 
	C373.444672,102.020973 372.200043,99.059845 372.099762,96.060448 
	C371.816437,87.586105 372.033173,79.095901 371.984161,70.612350 
	C371.969849,68.135582 372.169037,66.144531 375.422821,67.374397 
	C375.987701,79.457741 376.549896,91.484016 377.309814,103.841293 
z"/>
<path fill="#69A169" opacity="1.000000" stroke="none" 
	d="
M405.167023,101.017075 
	C405.444489,96.417152 405.866669,91.820305 405.964539,87.216576 
	C406.102264,80.740738 405.999359,74.259789 405.999359,66.462051 
	C407.771698,67.470367 409.827087,68.142998 409.795135,68.694687 
	C409.120087,80.345062 412.255768,92.237305 407.239258,103.607292 
	C406.220184,102.718338 405.693604,101.867706 405.167023,101.017075 
z"/>
<path fill="#69A169" opacity="1.000000" stroke="none" 
	d="
M69.545059,88.228531 
	C71.759872,88.252686 71.933884,82.806595 74.915977,87.077469 
	C75.005440,88.092606 74.999199,88.525810 74.992966,88.959007 
	C74.384872,89.798973 73.776772,90.638947 73.105560,91.796341 
	C73.042435,100.911926 73.042435,109.710098 73.042435,118.508263 
	C72.512337,118.782806 71.982246,119.057343 71.452148,119.331879 
	C70.636726,118.211617 69.130714,117.100937 69.114990,115.969566 
	C68.987823,106.813698 69.140450,97.653938 69.545059,88.228531 
z"/>
<path fill="#69A169" opacity="1.000000" stroke="none" 
	d="
M64.101166,85.464417 
	C65.144928,84.999817 66.122887,84.999847 67.467575,84.999847 
	C67.888565,95.279839 68.018120,105.560768 67.894997,115.838676 
	C67.880745,117.028206 66.463264,118.200928 65.696365,119.381447 
	C65.142700,119.136192 64.589035,118.890930 64.035370,118.645668 
	C64.035370,107.740128 64.035370,96.834579 64.101166,85.464417 
z"/>
<path fill="#69A169" opacity="1.000000" stroke="none" 
	d="
M59.101467,77.464401 
	C59.847610,76.998253 60.527996,76.996719 61.575420,77.463135 
	C61.973797,91.566582 62.005135,105.202087 62.036472,118.837593 
	C58.849564,119.616966 58.981873,117.535515 58.988529,115.405548 
	C59.027546,102.913452 59.024544,90.421211 59.101467,77.464401 
z"/>
<path fill="#69A169" opacity="1.000000" stroke="none" 
	d="
M385.898804,96.535698 
	C385.044830,97.268875 384.256561,97.537422 383.180298,97.927567 
	C382.595001,94.689865 382.118500,91.334755 382.039917,87.970337 
	C381.900879,82.016304 381.878723,76.051727 382.111572,70.103455 
	C382.157898,68.919510 383.567688,67.788940 384.348755,66.633751 
	C384.887329,66.886993 385.425934,67.140228 385.964508,67.393463 
	C385.964508,76.952667 385.964508,86.511864 385.898804,96.535698 
z"/>
<path fill="#68A168" opacity="1.000000" stroke="none" 
	d="
M193.999756,110.909210 
	C194.001617,105.619278 193.845367,100.805046 194.118469,96.015289 
	C194.185303,94.843185 195.657532,93.751221 196.483627,92.622406 
	C196.909058,92.911171 197.334503,93.199944 197.759933,93.488708 
	C197.759933,101.723618 197.759933,109.958519 197.759933,118.193428 
	C197.454041,118.540604 197.148132,118.887787 196.842239,119.234962 
	C195.898560,118.278236 194.485626,117.469009 194.127075,116.328354 
	C193.652679,114.819321 194.003571,113.050873 193.999756,110.909210 
z"/>
<path fill="#68A168" opacity="1.000000" stroke="none" 
	d="
M73.854729,64.872688 
	C75.277359,67.543159 76.699989,70.213631 78.107773,72.856239 
	C76.681557,73.727470 74.686249,75.411186 72.385109,76.182884 
	C70.935829,76.668907 69.028603,75.789383 67.499321,75.168716 
	C68.767204,73.171684 69.862572,71.528366 70.952454,69.500153 
	C69.934914,68.072571 68.922867,67.029877 67.935623,66.013245 
	C67.960419,66.039307 68.005585,66.095314 68.331207,65.844727 
	C67.768623,64.031204 66.880402,62.468281 66.035721,60.915039 
	C66.079247,60.924717 66.166901,60.941181 66.166901,60.941181 
	C67.942825,61.174515 69.718758,61.407852 71.772415,61.321423 
	C72.050140,61.001656 71.992767,60.914417 71.657913,61.118546 
	C72.166954,62.506012 73.010841,63.689350 73.854729,64.872688 
z"/>
<path fill="#68A168" opacity="1.000000" stroke="none" 
	d="
M95.514816,91.048004 
	C91.435539,92.102509 87.733078,93.443558 83.915909,94.005646 
	C82.391235,94.230156 80.613480,92.735962 78.950928,92.024155 
	C80.936737,90.415619 82.808754,87.664062 84.933624,87.452530 
	C88.596939,87.087860 92.417542,88.303177 96.501801,88.927048 
	C96.502846,89.673088 96.174225,90.347565 95.514816,91.048004 
M89.200935,91.083763 
	C88.789543,90.765678 88.378143,90.447594 87.966743,90.129517 
	C87.852303,90.412354 87.737862,90.695190 87.623428,90.978035 
	C88.103348,91.128136 88.583267,91.278229 89.200935,91.083763 
z"/>
<path fill="#69A169" opacity="1.000000" stroke="none" 
	d="
M186.998993,107.967850 
	C186.998993,111.898468 186.998993,115.336571 186.998993,119.018211 
	C183.718002,117.595421 182.687012,99.321526 184.870804,92.174469 
	C186.998993,93.545967 186.998993,93.545967 186.998993,107.967850 
z"/>
<path fill="#69A169" opacity="1.000000" stroke="none" 
	d="
M189.000580,101.069290 
	C189.000580,97.803001 189.000580,95.025101 189.000580,92.247192 
	C189.587708,92.113060 190.174850,91.978928 190.761978,91.844788 
	C191.173889,93.141579 191.901321,94.426559 191.950333,95.736916 
	C192.668488,114.936890 192.393784,117.465439 189.000580,119.087463 
	C189.000580,113.038887 189.000580,107.298286 189.000580,101.069290 
z"/>
<path fill="#69A169" opacity="1.000000" stroke="none" 
	d="
M70.957947,69.885048 
	C69.862572,71.528366 68.767204,73.171684 67.342751,74.905357 
	C66.430801,73.470398 65.847939,71.945084 65.091888,69.784637 
	C64.277687,68.070305 63.636658,66.991119 62.995628,65.911926 
	C62.995628,65.911926 63.044254,65.967583 62.939442,65.677101 
	C62.208775,63.962051 61.582920,62.537483 60.968624,60.876560 
	C60.980179,60.640202 61.000122,60.167339 61.000122,60.167339 
	C62.545971,60.657288 64.091820,61.147232 65.902283,61.289181 
	C66.166901,60.941181 66.079247,60.924717 65.708115,61.163849 
	C66.226509,62.967094 67.116043,64.531204 68.005585,66.095314 
	C68.005585,66.095314 67.960419,66.039307 68.051994,66.317886 
	C69.081696,67.692650 70.019821,68.788849 70.957947,69.885048 
z"/>
<path fill="#69A169" opacity="1.000000" stroke="none" 
	d="
M404.386597,96.820923 
	C403.696289,87.420212 403.348145,77.751785 402.999939,67.625320 
	C403.668121,67.999718 404.911438,68.828918 404.916107,69.665062 
	C404.966248,78.627159 404.820648,87.590340 404.386597,96.820923 
z"/>
<path fill="#80BF80" opacity="1.000000" stroke="none" 
	d="
M254.426804,118.663132 
	C254.029221,102.178139 254.021759,85.518478 254.018326,68.384506 
	C254.346771,68.758675 254.953903,69.607201 254.953751,70.455620 
	C254.951019,86.466568 254.876495,102.477516 254.426804,118.663132 
z"/>
<path fill="#80BF80" opacity="1.000000" stroke="none" 
	d="
M126.426788,118.663147 
	C126.029175,102.178101 126.021690,85.518394 126.018158,68.384369 
	C126.346619,68.758492 126.953911,69.606987 126.953766,70.455383 
	C126.951050,86.466423 126.876495,102.477455 126.426788,118.663147 
z"/>
<path fill="#80BF80" opacity="1.000000" stroke="none" 
	d="
M62.426674,118.663055 
	C62.005135,105.202087 61.973797,91.566582 61.915611,77.462074 
	C62.165726,76.785767 62.442684,76.578461 62.908298,76.193298 
	C63.003590,90.173134 62.910229,104.330826 62.426674,118.663055 
z"/>
<path fill="#69A169" opacity="1.000000" stroke="none" 
	d="
M405.031952,101.284378 
	C405.693604,101.867706 406.220184,102.718338 406.925201,103.810196 
	C406.764740,104.857506 406.425873,105.663574 405.938660,106.776108 
	C405.790283,107.082581 405.906921,106.999214 405.667450,107.064384 
	C404.922668,107.777527 404.417358,108.425507 403.912048,109.073479 
	C403.912048,109.073479 404.003632,109.004433 403.704834,108.988632 
	C402.950378,109.020950 402.494751,109.069077 402.039124,109.117195 
	C401.853271,107.246269 401.667450,105.375336 401.792603,103.499023 
	C402.765045,102.990448 403.426514,102.487267 404.087952,101.984085 
	C404.087952,101.984085 403.997620,102.094681 403.955536,102.152473 
	C404.241272,101.990738 404.569061,101.771210 405.031952,101.284378 
z"/>
<path fill="#68A168" opacity="1.000000" stroke="none" 
	d="
M96.957588,110.113113 
	C98.151466,110.614479 99.934753,110.798454 100.412422,111.685501 
	C101.313911,113.359604 101.463982,115.438339 101.942001,117.731537 
	C100.827095,116.788506 99.696541,115.462852 98.248001,114.022324 
	C97.930000,113.907448 98.001556,113.997025 97.998436,113.691635 
	C97.649406,112.295197 97.303497,111.204155 96.957588,110.113113 
z"/>
<path fill="#68A168" opacity="1.000000" stroke="none" 
	d="
M97.745499,94.923080 
	C97.976555,95.380531 98.210312,96.139587 97.985596,96.316589 
	C96.950882,97.131599 95.826157,97.868988 94.630531,98.403336 
	C94.452324,98.482979 93.725105,97.334183 93.251869,96.753693 
	C94.312767,96.171440 95.373657,95.589188 96.774658,94.982071 
	C97.114769,94.957207 97.537041,94.956612 97.745499,94.923080 
z"/>
<path fill="#69A169" opacity="1.000000" stroke="none" 
	d="
M308.833649,99.001457 
	C308.095337,99.010162 307.356995,99.018867 306.249512,99.033508 
	C305.599518,98.250092 305.318665,97.460724 305.102112,96.335320 
	C306.216003,95.106804 307.265564,94.214325 308.632690,93.585602 
	C308.911346,95.566727 308.872498,97.284088 308.833649,99.001457 
z"/>
<path fill="#68A168" opacity="1.000000" stroke="none" 
	d="
M108.019753,112.587784 
	C107.488510,113.481934 106.930000,114.074127 105.904510,114.783569 
	C104.971863,114.627876 104.506195,114.354912 104.040527,114.081947 
	C104.915794,113.184639 105.791061,112.287338 106.859169,111.142258 
	C107.365494,111.358261 107.678993,111.822037 108.019753,112.587784 
z"/>
<path fill="#68A168" opacity="1.000000" stroke="none" 
	d="
M74.654480,60.102276 
	C74.735710,60.946705 74.470657,61.727268 73.772034,62.632595 
	C72.889893,62.143044 72.441330,61.528732 71.992767,60.914417 
	C71.992767,60.914417 72.050140,61.001656 72.079330,61.044952 
	C72.841751,60.738304 73.574974,60.388359 74.654480,60.102276 
z"/>
<path fill="#69A169" opacity="1.000000" stroke="none" 
	d="
M322.612152,66.961571 
	C321.830536,67.582428 320.712189,68.245430 319.244873,68.934975 
	C320.022400,68.308914 321.148895,67.656311 322.612152,66.961571 
z"/>
<path fill="#69A169" opacity="1.000000" stroke="none" 
	d="
M59.106239,72.331284 
	C59.667454,72.338501 60.166523,72.677177 60.665596,73.015854 
	C60.317078,73.309715 59.968559,73.603584 59.394165,73.948807 
	C59.126896,73.554352 59.085495,73.108551 59.106239,72.331284 
z"/>
<path fill="#69A169" opacity="1.000000" stroke="none" 
	d="
M55.659897,60.115627 
	C55.540569,60.688099 55.081299,61.209496 54.394539,61.865101 
	C54.551346,61.354389 54.935646,60.709473 55.659897,60.115627 
z"/>
<path fill="#68A168" opacity="1.000000" stroke="none" 
	d="
M60.738075,60.167553 
	C61.000122,60.167339 60.980179,60.640202 60.723141,60.818169 
	C60.299961,60.969791 60.133816,60.943447 59.967670,60.917103 
	C59.967670,60.917103 60.033112,61.007481 60.067116,61.051929 
	C60.226089,60.786842 60.351059,60.477306 60.738075,60.167553 
z"/>
<path fill="#000000" opacity="1.000000" stroke="none" 
	d="
M165.034927,68.917519 
	C172.270523,66.645500 178.009964,69.295021 183.589050,73.019005 
	C174.570709,68.801834 165.628036,68.502357 156.726227,73.522392 
	C156.615387,73.101440 156.504547,72.680481 156.393707,72.259529 
	C159.135391,71.164070 161.877075,70.068611 165.034927,68.917519 
z"/>
<path fill="#000000" opacity="1.000000" stroke="none" 
	d="
M147.948456,101.814194 
	C148.840912,103.910355 149.627014,105.618881 150.413116,107.327415 
	C143.600662,99.158241 143.161850,89.042076 149.005600,80.654419 
	C146.738892,87.498383 144.548447,94.345596 147.948456,101.814194 
z"/>
<path fill="#000000" opacity="1.000000" stroke="none" 
	d="
M150.008072,91.352264 
	C151.034027,88.036308 152.054764,85.150543 153.075500,82.264778 
	C153.533844,82.318741 153.992188,82.372711 154.450531,82.426674 
	C150.945282,89.800140 150.540344,97.108879 154.410538,104.328369 
	C153.794479,104.428581 153.178421,104.528801 152.562347,104.629013 
	C151.709183,100.346825 150.856003,96.064629 150.008072,91.352264 
z"/>
<path fill="#000000" opacity="1.000000" stroke="none" 
	d="
M164.144928,75.909615 
	C162.396667,76.406746 161.059570,76.831802 158.750488,77.565842 
	C165.565750,72.375252 172.665024,72.247635 179.150436,75.837540 
	C175.110519,75.837540 169.833298,75.837540 164.144928,75.909615 
z"/>
<path fill="#000000" opacity="1.000000" stroke="none" 
	d="
M157.169220,113.988655 
	C163.955124,116.229492 170.689377,118.904434 178.092972,115.955338 
	C173.121750,119.441902 162.627213,118.488274 157.258820,114.247726 
	C157.233017,113.909073 157.169220,113.988655 157.169220,113.988655 
z"/>
<path fill="#000000" opacity="1.000000" stroke="none" 
	d="
M173.964081,111.512810 
	C175.063431,111.190697 175.855988,111.111160 176.943100,111.002060 
	C172.957397,114.456772 165.271255,113.637794 159.130951,109.786079 
	C163.416229,110.367027 168.536758,111.061203 173.964081,111.512810 
z"/>
<path fill="#000000" opacity="1.000000" stroke="none" 
	d="
M157.296616,100.664299 
	C153.657791,95.488800 154.574219,90.440994 157.071213,86.155495 
	C157.339569,90.048271 157.651688,94.575859 157.826385,99.699463 
	C157.558167,100.418419 157.427399,100.541359 157.296616,100.664299 
z"/>
<path fill="#000000" opacity="1.000000" stroke="none" 
	d="
M171.433838,78.744843 
	C174.116867,79.680641 176.440918,80.449249 178.764984,81.217857 
	C178.682175,81.683159 178.599365,82.148453 178.516556,82.613747 
	C172.830673,79.113373 167.125107,79.093964 161.399506,82.616714 
	C161.326050,82.033028 161.252609,81.449333 161.179153,80.865646 
	C164.477737,80.102989 167.776306,79.340324 171.433838,78.744843 
z"/>
<path fill="#000000" opacity="1.000000" stroke="none" 
	d="
M157.885284,100.111252 
	C158.616272,100.779655 159.150925,101.632294 159.685577,102.484932 
	C159.483002,102.631210 159.280411,102.777489 159.077820,102.923767 
	C158.633865,102.369659 158.189911,101.815559 157.521271,100.962875 
	C157.427399,100.541359 157.558167,100.418419 157.885284,100.111252 
z"/>
<path fill="#000000" opacity="1.000000" stroke="none" 
	d="
M155.794434,74.393036 
	C155.354889,74.633430 155.079422,74.577454 154.803940,74.521477 
	C154.863144,74.268097 154.922348,74.014717 154.981552,73.761337 
	C155.307205,73.873116 155.632843,73.984894 155.794434,74.393036 
z"/>
<path fill="#000000" opacity="1.000000" stroke="none" 
	d="
M184.163055,73.829102 
	C184.551590,73.899277 184.830093,74.290573 185.108612,74.681870 
	C184.756760,74.504654 184.404907,74.327446 184.163055,73.829102 
z"/>
<path fill="#000000" opacity="1.000000" stroke="none" 
	d="
M150.368896,79.801971 
	C149.967880,79.625374 149.874496,79.287262 149.781113,78.949150 
	C150.035797,78.894470 150.290482,78.839783 150.545166,78.785095 
	C150.588943,79.070221 150.632721,79.355339 150.368896,79.801971 
z"/>
<path fill="#000000" opacity="1.000000" stroke="none" 
	d="
M155.717682,79.630836 
	C156.288147,79.363754 156.858612,79.096657 157.429062,78.829559 
	C157.511505,79.074036 157.593964,79.318512 157.676407,79.562988 
	C157.211960,79.654022 156.747498,79.745056 155.976227,79.704712 
	C155.669418,79.573334 155.717682,79.630829 155.717682,79.630836 
z"/>
<path fill="#000000" opacity="1.000000" stroke="none" 
	d="
M157.275238,113.880478 
	C156.627274,113.668480 155.937088,113.485077 155.246902,113.301674 
	C155.374985,113.078362 155.503067,112.855049 155.631165,112.631744 
	C156.017181,112.870811 156.403198,113.109879 156.979218,113.668800 
	C157.169220,113.988655 157.233017,113.909073 157.275238,113.880478 
z"/>
<path fill="#000000" opacity="1.000000" stroke="none" 
	d="
M155.645721,79.544220 
	C155.560303,80.234970 155.498596,80.954842 155.436874,81.674706 
	C155.181366,81.609840 154.925858,81.544968 154.670349,81.480103 
	C154.865692,81.060577 155.061035,80.641060 155.487030,79.926186 
	C155.717682,79.630829 155.669418,79.573334 155.645721,79.544220 
z"/>
<path fill="#000000" opacity="1.000000" stroke="none" 
	d="
M160.571152,103.592117 
	C161.007324,103.909279 161.227005,104.187637 161.181107,104.411568 
	C161.150406,104.561272 160.742142,104.633568 160.502838,104.740494 
	C160.415787,104.337051 160.328735,103.933601 160.571152,103.592117 
z"/>
<path fill="#68A168" opacity="1.000000" stroke="none" 
	d="
M87.047516,78.936203 
	C85.422348,80.743034 84.053741,83.085602 82.015366,84.175453 
	C81.178734,84.622765 78.897453,82.368050 77.273323,81.342461 
	C77.418976,80.687469 77.564621,80.032486 77.710266,79.377495 
	C80.615822,79.224091 83.521370,79.070686 86.761879,78.929138 
	C87.096832,78.940987 87.034363,78.967468 87.047516,78.936203 
z"/>
<path fill="#69A169" opacity="1.000000" stroke="none" 
	d="
M91.114136,104.957764 
	C89.208527,104.126541 87.302917,103.295319 85.017532,102.006454 
	C84.098755,101.035591 83.559761,100.522385 83.020760,100.009171 
	C84.154343,99.351067 85.287918,98.692970 87.087326,98.211967 
	C88.530968,98.930031 89.308792,99.471001 90.086624,100.011963 
	C90.086624,100.011963 90.037300,99.958092 89.699547,100.208939 
	C89.945908,101.959114 90.530022,103.458435 91.114136,104.957764 
z"/>
<path fill="#68A168" opacity="1.000000" stroke="none" 
	d="
M94.167114,105.998055 
	C95.409645,105.275391 96.652168,104.552734 97.894699,103.830078 
	C98.174469,104.372620 98.454231,104.915154 98.734001,105.457687 
	C97.675941,105.975647 96.617889,106.493599 94.992630,106.937973 
	C94.108498,106.644424 94.022400,106.355652 94.167114,105.998055 
z"/>
<path fill="#000000" opacity="1.000000" stroke="none" 
	d="
M94.051300,105.741745 
	C94.022400,106.355652 94.108498,106.644424 94.652954,106.950745 
	C95.020561,107.628090 95.160622,108.219070 95.299484,109.250854 
	C95.175270,109.822449 95.052254,109.953247 94.929237,110.084038 
	C94.023071,108.615990 93.116905,107.147942 92.261848,105.193192 
	C92.443474,104.583282 92.573990,104.460091 92.704498,104.336906 
	C93.114830,104.719749 93.525154,105.102600 94.051300,105.741745 
z"/>
<path fill="#000000" opacity="1.000000" stroke="none" 
	d="
M59.691704,61.247833 
	C60.133816,60.943447 60.299961,60.969791 60.711586,61.054527 
	C61.582920,62.537483 62.208775,63.962051 62.964630,65.704147 
	C61.868332,64.540642 60.642036,63.059601 59.691704,61.247833 
z"/>
<path fill="#000000" opacity="1.000000" stroke="none" 
	d="
M91.316185,104.985046 
	C90.530022,103.458435 89.945908,101.959114 89.674072,100.182770 
	C90.757904,101.204361 91.529449,102.502968 92.502747,104.069244 
	C92.573990,104.460091 92.443474,104.583282 92.117004,104.891090 
	C91.921059,105.075699 91.518234,105.012321 91.316185,104.985046 
z"/>
<path fill="#000000" opacity="1.000000" stroke="none" 
	d="
M96.717087,110.023026 
	C97.303497,111.204155 97.649406,112.295197 98.033173,113.737228 
	C97.115303,112.954353 96.159592,111.820480 95.066559,110.385323 
	C95.052254,109.953247 95.175270,109.822449 95.483017,109.495651 
	C95.937363,109.510742 96.206978,109.721840 96.717087,110.023026 
z"/>
<path fill="#000000" opacity="1.000000" stroke="none" 
	d="
M89.972168,99.708443 
	C89.308792,99.471001 88.530968,98.930031 87.435532,98.177094 
	C87.084122,97.547615 87.050331,97.130112 87.258064,96.366219 
	C87.499580,96.019829 87.944992,96.084702 87.944992,96.084702 
	C88.582565,97.191444 89.220131,98.298180 89.972168,99.708443 
z"/>
<path fill="#69A169" opacity="1.000000" stroke="none" 
	d="
M70.688828,81.397293 
	C70.920975,81.399025 71.119476,81.506958 71.317978,81.614883 
	C71.097046,81.577759 70.876122,81.540634 70.688828,81.397293 
z"/>
<path fill="#000000" opacity="1.000000" stroke="none" 
	d="
M62.657894,66.116089 
	C63.636658,66.991119 64.277687,68.070305 64.907486,69.482903 
	C64.037560,68.650955 63.178860,67.485603 62.657894,66.116089 
z"/>
<path fill="#000000" opacity="1.000000" stroke="none" 
	d="
M71.657913,61.118546 
	C72.441330,61.528732 72.889893,62.143044 73.608139,62.896751 
	C73.892372,63.444920 73.906929,63.853695 73.888107,64.567581 
	C73.010841,63.689350 72.166954,62.506012 71.657913,61.118546 
z"/>
<path fill="#000000" opacity="1.000000" stroke="none" 
	d="
M94.116562,117.889511 
	C93.255974,116.962509 92.593765,115.851677 91.931564,114.740852 
	C92.200874,114.585884 92.470192,114.430916 92.739510,114.275948 
	C93.272514,115.125313 93.805519,115.974670 94.524902,117.080811 
	C94.579155,117.460289 94.447044,117.582985 94.116562,117.889511 
z"/>
<path fill="#000000" opacity="1.000000" stroke="none" 
	d="
M104.031464,114.424126 
	C104.506195,114.354912 104.971863,114.627876 105.696495,115.006989 
	C106.186111,115.917603 106.416756,116.722061 106.330414,117.810425 
	C105.349754,116.984985 104.686073,115.875641 104.031464,114.424126 
z"/>
<path fill="#69A269" opacity="1.000000" stroke="none" 
	d="
M75.151398,88.872406 
	C74.999199,88.525810 75.005440,88.092606 75.019531,87.334366 
	C75.121529,87.601486 75.215675,88.193642 75.151398,88.872406 
z"/>
<path fill="#69A269" opacity="1.000000" stroke="none" 
	d="
M83.159973,100.257187 
	C83.559761,100.522385 84.098755,101.035591 84.805511,101.772690 
	C84.415237,101.499451 83.857208,101.002327 83.159973,100.257187 
z"/>
<path fill="#68A168" opacity="1.000000" stroke="none" 
	d="
M87.835861,96.049957 
	C87.944992,96.084702 87.499580,96.019829 87.277626,96.052032 
	C87.273506,95.995338 87.497192,95.972328 87.835861,96.049957 
z"/>
<path fill="#69A169" opacity="1.000000" stroke="none" 
	d="
M330.999878,113.166809 
	C330.449585,113.998344 329.899292,114.829872 328.791962,115.843231 
	C327.139435,115.710190 326.043945,115.395317 324.757996,114.803879 
	C323.345428,114.031166 322.123322,113.535034 320.612061,112.919266 
	C319.571289,112.547356 318.819702,112.295067 318.068085,112.042778 
	C317.819733,111.506638 317.571411,110.970490 317.164825,109.952194 
	C317.006561,109.470039 317.002350,109.008797 317.002350,109.008789 
	C319.528107,108.043152 322.053833,107.077507 325.197144,106.062149 
	C331.445038,108.875793 336.922028,109.309662 342.069214,105.011215 
	C342.039886,105.038025 341.981110,105.091576 342.274475,104.978775 
	C343.074310,104.219841 343.580780,103.573715 344.047302,102.967369 
	C344.007324,103.007141 343.927429,103.086678 344.229095,102.994949 
	C345.050812,102.262535 345.570862,101.621849 346.062622,101.011986 
	C346.034363,101.042809 345.977753,101.104362 346.308594,100.921432 
	C349.726868,93.760071 349.289154,89.375420 344.880554,84.896103 
	C343.733002,83.729385 342.788452,82.820274 341.747650,81.570045 
	C336.294922,77.334381 330.875763,77.763962 325.333435,81.260117 
	C324.694153,82.687027 324.137451,83.847366 323.300629,84.629501 
	C322.399963,84.728134 321.594940,85.083336 321.187775,85.700867 
	C317.663940,91.045174 318.657257,96.468300 321.043427,101.887466 
	C319.901611,102.230392 318.759827,102.573318 317.295044,102.535378 
	C314.410461,95.936790 314.456604,89.685242 316.319061,83.245049 
	C315.490601,85.496643 314.662109,87.748238 313.833618,89.999817 
	C313.052551,89.739372 312.271515,89.478920 311.241486,88.671951 
	C311.681122,85.138222 312.369720,82.151024 313.058319,79.163818 
	C315.926422,78.921608 318.794556,78.679398 322.230164,78.193787 
	C330.852325,73.885368 338.664154,73.277252 345.990601,79.579468 
	C346.375000,79.957733 346.759399,80.336006 347.565247,81.113464 
	C351.302002,85.927780 352.868896,90.913544 351.907135,96.345383 
	C351.377625,99.335976 349.958496,102.169052 348.940430,105.073151 
	C348.940430,105.073143 348.996338,104.997673 348.605835,105.184357 
	C348.146515,106.108185 348.077728,106.845314 348.008911,107.582451 
	C348.008911,107.582451 347.723755,107.864098 347.331604,107.568230 
	C345.941071,108.217262 344.942657,109.162163 343.944244,110.107056 
	C343.944244,110.107056 344.023285,110.044678 343.727325,109.726212 
	C337.406097,112.445236 331.240723,113.084915 324.834625,109.605736 
	C324.789398,110.078560 324.744141,110.551392 324.698914,111.024223 
	C326.799225,111.738419 328.899567,112.452621 330.999878,113.166809 
M317.507538,82.775230 
	C317.918427,82.527000 318.329285,82.278770 318.740173,82.030556 
	C318.367279,82.056725 317.994415,82.082901 317.507538,82.775230 
z"/>
<path fill="#69A169" opacity="1.000000" stroke="none" 
	d="
M323.580719,85.007706 
	C324.137451,83.847366 324.694153,82.687027 325.665344,81.627243 
	C331.367920,78.918610 336.611023,79.974052 341.843903,81.911163 
	C342.788452,82.820274 343.733002,83.729385 344.886780,85.281967 
	C348.098846,90.827728 346.684753,95.986580 345.977753,101.104362 
	C345.977753,101.104362 346.034363,101.042809 345.770325,100.705330 
	C344.979980,101.274132 344.453705,102.180412 343.927429,103.086685 
	C343.927429,103.086678 344.007324,103.007141 343.631714,103.016907 
	C342.831116,103.714966 342.406097,104.403275 341.981110,105.091576 
	C341.981110,105.091576 342.039886,105.038025 341.753387,104.711090 
	C336.519287,107.345398 331.513733,107.397049 326.388794,104.805183 
	C325.892548,104.554207 325.082214,104.924271 324.417664,105.006042 
	C323.730103,104.308479 323.042511,103.610924 322.548065,102.442490 
	C320.172394,96.175995 318.537628,90.426605 323.580719,85.007706 
M335.128265,102.987442 
	C337.062714,101.838570 339.933289,101.129074 340.724365,99.443573 
	C342.102570,96.507172 343.213531,92.726364 342.504272,89.761780 
	C341.958618,87.480850 338.723236,84.933907 336.198700,84.219254 
	C330.378815,82.571754 324.603088,86.658974 324.012421,91.953133 
	C323.325439,98.111061 327.666260,102.767433 335.128265,102.987442 
z"/>
<path fill="#000000" opacity="1.000000" stroke="none" 
	d="
M318.164673,112.374428 
	C318.819702,112.295067 319.571289,112.547356 320.785828,113.210541 
	C322.482025,114.107773 323.715240,114.594109 324.948486,115.080444 
	C326.043945,115.395317 327.139435,115.710190 328.597290,116.072922 
	C335.585266,118.604401 341.302094,115.854744 347.308167,112.846077 
	C347.617767,112.703979 347.553833,112.651932 347.553833,112.651932 
	C344.293427,117.765106 339.046387,117.838882 333.095123,118.049057 
	C331.890564,118.085648 331.445343,118.125710 331.000122,118.165771 
	C326.753845,116.345871 322.507538,114.525978 318.164673,112.374428 
z"/>
<path fill="#000000" opacity="1.000000" stroke="none" 
	d="
M353.635254,78.704224 
	C357.951538,85.173447 360.265594,92.226112 357.928589,100.540245 
	C357.142517,102.551903 356.403992,104.143494 355.177856,105.716980 
	C354.562286,105.571777 354.434265,105.444672 354.306213,105.317574 
	C358.397766,96.365471 357.977112,87.592529 353.635254,78.704224 
z"/>
<path fill="#000000" opacity="1.000000" stroke="none" 
	d="
M325.882324,69.399033 
	C333.420685,67.280205 340.417603,67.894440 346.941040,72.716072 
	C339.219208,69.555443 331.240204,68.469620 322.799469,71.466545 
	C323.774719,70.871140 324.749939,70.275734 325.882324,69.399033 
z"/>
<path fill="#000000" opacity="1.000000" stroke="none" 
	d="
M312.888611,79.474075 
	C312.369720,82.151024 311.681122,85.138222 310.976379,88.510406 
	C308.412567,94.958534 310.922729,100.340500 313.267700,106.227356 
	C313.179840,106.831291 313.054413,106.957634 312.928955,107.083969 
	C311.674225,104.605843 310.419495,102.127716 308.999207,99.325523 
	C308.872498,97.284088 308.911346,95.566727 308.881592,93.424690 
	C310.114960,88.594795 311.416931,84.189560 312.888611,79.474075 
z"/>
<path fill="#000000" opacity="1.000000" stroke="none" 
	d="
M346.375610,79.319328 
	C338.664154,73.277252 330.852325,73.885368 322.418518,77.932297 
	C328.730408,70.926407 340.517944,72.188148 346.375610,79.319328 
z"/>
<path fill="#000000" opacity="1.000000" stroke="none" 
	d="
M349.280334,104.944366 
	C349.958496,102.169052 351.377625,99.335976 351.907135,96.345383 
	C352.868896,90.913544 351.302002,85.927780 347.703613,81.261002 
	C348.151459,81.101700 349.329102,80.939911 349.547516,81.323837 
	C354.117798,89.357544 356.235413,95.561546 349.280334,104.944366 
z"/>
<path fill="#000000" opacity="1.000000" stroke="none" 
	d="
M331.436584,113.101227 
	C328.899567,112.452621 326.799225,111.738419 324.698914,111.024223 
	C324.744141,110.551392 324.789398,110.078560 324.834625,109.605736 
	C331.240723,113.084915 337.406097,112.445236 343.766449,109.694519 
	C340.025452,110.999413 335.949341,112.017525 331.436584,113.101227 
z"/>
<path fill="#000000" opacity="1.000000" stroke="none" 
	d="
M313.899292,90.440292 
	C314.662109,87.748238 315.490601,85.496643 316.319061,83.245049 
	C314.456604,89.685242 314.410461,95.936790 316.932129,102.555069 
	C313.379974,99.545570 314.023468,95.128075 313.899292,90.440292 
z"/>
<path fill="#000000" opacity="1.000000" stroke="none" 
	d="
M323.300629,84.629501 
	C318.537628,90.426605 320.172394,96.175995 322.367798,102.276894 
	C321.859375,102.434265 321.724335,102.286362 321.316376,102.012955 
	C318.657257,96.468300 317.663940,91.045174 321.187775,85.700867 
	C321.594940,85.083336 322.399963,84.728134 323.300629,84.629501 
z"/>
<path fill="#000000" opacity="1.000000" stroke="none" 
	d="
M324.624023,105.189583 
	C325.082214,104.924271 325.892548,104.554207 326.388794,104.805183 
	C331.513733,107.397049 336.519287,107.345398 341.782715,104.684273 
	C336.922028,109.309662 331.445038,108.875793 325.427612,105.948166 
	C324.970490,105.713631 324.900421,105.543373 324.624023,105.189583 
z"/>
<path fill="#000000" opacity="1.000000" stroke="none" 
	d="
M354.881836,105.889992 
	C354.337677,107.256195 353.601929,108.431282 352.866211,109.606369 
	C352.605560,109.473854 352.344910,109.341331 352.084259,109.208809 
	C352.657562,108.066528 353.230835,106.924248 354.055176,105.549774 
	C354.434265,105.444672 354.562286,105.571777 354.881836,105.889992 
z"/>
<path fill="#69A169" opacity="1.000000" stroke="none" 
	d="
M331.109131,118.326469 
	C331.445343,118.125710 331.890564,118.085648 332.665039,118.115341 
	C332.402252,118.285789 331.810211,118.386475 331.109131,118.326469 
z"/>
<path fill="#000000" opacity="1.000000" stroke="none" 
	d="
M344.275574,109.975754 
	C344.942657,109.162163 345.941071,108.217262 347.261475,107.639801 
	C346.591278,108.619637 345.599060,109.232040 344.275574,109.975754 
z"/>
<path fill="#000000" opacity="1.000000" stroke="none" 
	d="
M313.493652,106.515648 
	C314.151947,106.869133 314.621826,107.411926 315.091705,107.954712 
	C314.935211,108.162163 314.778687,108.369614 314.622162,108.577065 
	C314.133789,108.258163 313.645447,107.939262 313.043030,107.352158 
	C313.054413,106.957634 313.179840,106.831291 313.493652,106.515648 
z"/>
<path fill="#000000" opacity="1.000000" stroke="none" 
	d="
M347.148560,73.364365 
	C347.614929,73.143814 348.308136,73.338852 349.291870,73.762421 
	C348.846771,73.920624 348.111084,73.850288 347.148560,73.364365 
z"/>
<path fill="#000000" opacity="1.000000" stroke="none" 
	d="
M348.237427,107.291733 
	C348.077728,106.845314 348.146515,106.108185 348.633392,105.146347 
	C348.856293,105.614769 348.661102,106.307892 348.237427,107.291733 
z"/>
<path fill="#000000" opacity="1.000000" stroke="none" 
	d="
M347.648804,112.731125 
	C348.278412,112.351219 348.876984,111.944168 349.475555,111.537117 
	C349.583252,111.709778 349.690979,111.882439 349.798706,112.055099 
	C349.320557,112.335739 348.842407,112.616371 347.959045,112.774475 
	C347.553833,112.651932 347.617767,112.703979 347.648804,112.731125 
z"/>
<path fill="#69A169" opacity="1.000000" stroke="none" 
	d="
M316.967529,109.123184 
	C317.002350,109.008797 317.006561,109.470039 317.010681,109.699699 
	C316.915039,109.706703 316.887695,109.476112 316.967529,109.123184 
z"/>
<path fill="#000000" opacity="1.000000" stroke="none" 
	d="
M382.645081,114.087067 
	C390.063232,118.528748 397.235046,117.563400 404.768860,114.690887 
	C398.979004,118.981804 386.730469,119.202866 381.994171,115.378769 
	C381.786163,115.210838 381.614105,114.812965 381.662811,114.569817 
	C381.703735,114.365746 382.091614,114.231224 382.645081,114.087067 
z"/>
<path fill="#000000" opacity="1.000000" stroke="none" 
	d="
M409.642639,110.391464 
	C410.463959,108.779434 411.504395,107.570450 412.819702,106.674881 
	C412.016968,108.257034 410.939362,109.525772 409.642639,110.391464 
z"/>
<path fill="#000000" opacity="1.000000" stroke="none" 
	d="
M405.376221,114.911087 
	C405.805267,114.068443 406.623291,113.043228 407.714844,111.720795 
	C407.247284,112.525223 406.506226,113.626869 405.376221,114.911087 
z"/>
<path fill="#000000" opacity="1.000000" stroke="none" 
	d="
M401.837646,109.428558 
	C402.494751,109.069077 402.950378,109.020950 403.749390,108.952576 
	C397.921661,115.078003 387.229431,114.619667 381.627106,107.686623 
	C388.069977,112.267723 394.546814,113.594955 401.837646,109.428558 
z"/>
<path fill="#69A169" opacity="1.000000" stroke="none" 
	d="
M385.765320,105.228195 
	C385.734802,105.193855 385.925659,105.081650 385.925659,105.081650 
	C385.925659,105.081650 385.795807,105.262527 385.765320,105.228195 
z"/>
<path fill="#000000" opacity="1.000000" stroke="none" 
	d="
M403.824280,101.670082 
	C403.426514,102.487267 402.765045,102.990448 401.958496,103.247322 
	C402.395813,102.452705 402.978210,101.904396 403.824280,101.670082 
z"/>
<path fill="#000000" opacity="1.000000" stroke="none" 
	d="
M381.320007,106.774841 
	C380.746674,106.613037 379.910919,106.233635 379.004395,105.386887 
	C379.641571,105.465439 380.349579,106.011345 381.320007,106.774841 
z"/>
<path fill="#69A169" opacity="1.000000" stroke="none" 
	d="
M395.498444,106.998825 
	C395.514587,106.994278 395.482300,107.003380 395.498444,106.998825 
z"/>
<path fill="#000000" opacity="1.000000" stroke="none" 
	d="
M404.327576,109.024101 
	C404.417358,108.425507 404.922668,107.777527 405.722961,107.019020 
	C405.592987,107.597229 405.168030,108.285980 404.327576,109.024101 
z"/>
<path fill="#000000" opacity="1.000000" stroke="none" 
	d="
M70.952454,69.500153 
	C70.019821,68.788849 69.081696,67.692650 68.027199,66.291824 
	C68.922867,67.029877 69.934914,68.072571 70.952454,69.500153 
z"/>
<path fill="#000000" opacity="1.000000" stroke="none" 
	d="
M68.331207,65.844727 
	C67.116043,64.531204 66.226509,62.967094 65.664581,61.154167 
	C66.880402,62.468281 67.768623,64.031204 68.331207,65.844727 
z"/>
<path fill="#69A169" opacity="1.000000" stroke="none" 
	d="
M89.132065,91.256042 
	C88.583267,91.278229 88.103348,91.128136 87.623428,90.978035 
	C87.737862,90.695190 87.852303,90.412354 87.966751,90.129517 
	C88.378143,90.447594 88.789543,90.765678 89.132065,91.256042 
z"/>
<path fill="#000000" opacity="1.000000" stroke="none" 
	d="
M346.308594,100.921432 
	C346.684753,95.986580 348.098846,90.827728 345.089783,85.539581 
	C349.289154,89.375420 349.726868,93.760071 346.308594,100.921432 
z"/>
<path fill="#000000" opacity="1.000000" stroke="none" 
	d="
M341.747650,81.570053 
	C336.611023,79.974052 331.367920,78.918610 325.747925,81.360672 
	C330.875763,77.763962 336.294922,77.334381 341.747650,81.570053 
z"/>
<path fill="#69A169" opacity="1.000000" stroke="none" 
	d="
M324.757996,114.803879 
	C323.715240,114.594109 322.482025,114.107773 321.075012,113.330170 
	C322.123322,113.535034 323.345428,114.031166 324.757996,114.803879 
z"/>
<path fill="#000000" opacity="1.000000" stroke="none" 
	d="
M344.229126,102.994965 
	C344.453705,102.180412 344.979980,101.274132 345.798584,100.674507 
	C345.570862,101.621849 345.050812,102.262535 344.229126,102.994965 
z"/>
<path fill="#000000" opacity="1.000000" stroke="none" 
	d="
M342.274475,104.978775 
	C342.406097,104.403275 342.831116,103.714966 343.671692,102.977127 
	C343.580780,103.573715 343.074310,104.219841 342.274475,104.978775 
z"/>
<path fill="#000000" opacity="1.000000" stroke="none" 
	d="
M317.564514,82.442154 
	C317.994415,82.082901 318.367279,82.056725 318.740173,82.030548 
	C318.329285,82.278770 317.918427,82.527000 317.564514,82.442154 
z"/>
<path fill="#000000" opacity="1.000000" stroke="none" 
	d="
M334.718353,102.992493 
	C327.666260,102.767433 323.325439,98.111061 324.012421,91.953133 
	C324.603088,86.658974 330.378815,82.571754 336.198700,84.219254 
	C338.723236,84.933907 341.958618,87.480850 342.504272,89.761780 
	C343.213531,92.726364 342.102570,96.507172 340.724365,99.443573 
	C339.933289,101.129074 337.062714,101.838570 334.718353,102.992493 
z"/>
</svg>